
	
<svg xmlns="http://www.w3.org/2000/svg" xmlns:xlink="http://www.w3.org/1999/xlink" version="1.1" width="100" height="100" viewBox="0 0 2000 2000" x="0" y="0" shape-rendering="crispEdges"><defs/><rect x="0" y="0" width="2000" height="2000" fill="#000000"/><rect x="686" y="173" width="57" height="57" fill="#ffffff"/><rect x="743" y="173" width="57" height="57" fill="#ffffff"/><rect x="800" y="173" width="57" height="57" fill="#ffffff"/><rect x="914" y="173" width="57" height="57" fill="#ffffff"/><rect x="1142" y="173" width="57" height="57" fill="#ffffff"/><rect x="1199" y="173" width="57" height="57" fill="#ffffff"/><rect x="1313" y="173" width="57" height="57" fill="#ffffff"/><rect x="800" y="230" width="57" height="57" fill="#ffffff"/><rect x="857" y="230" width="57" height="57" fill="#ffffff"/><rect x="914" y="230" width="57" height="57" fill="#ffffff"/><rect x="971" y="230" width="57" height="57" fill="#ffffff"/><rect x="1028" y="230" width="57" height="57" fill="#ffffff"/><rect x="1085" y="230" width="57" height="57" fill="#ffffff"/><rect x="1142" y="230" width="57" height="57" fill="#ffffff"/><rect x="1313" y="230" width="57" height="57" fill="#ffffff"/><rect x="686" y="287" width="57" height="57" fill="#ffffff"/><rect x="743" y="287" width="57" height="57" fill="#ffffff"/><rect x="800" y="287" width="57" height="57" fill="#ffffff"/><rect x="914" y="287" width="57" height="57" fill="#ffffff"/><rect x="1142" y="287" width="57" height="57" fill="#ffffff"/><rect x="1199" y="287" width="57" height="57" fill="#ffffff"/><rect x="1256" y="287" width="57" height="57" fill="#ffffff"/><rect x="1313" y="287" width="57" height="57" fill="#ffffff"/><rect x="629" y="344" width="57" height="57" fill="#ffffff"/><rect x="743" y="344" width="57" height="57" fill="#ffffff"/><rect x="800" y="344" width="57" height="57" fill="#ffffff"/><rect x="971" y="344" width="57" height="57" fill="#ffffff"/><rect x="1142" y="344" width="57" height="57" fill="#ffffff"/><rect x="1313" y="344" width="57" height="57" fill="#ffffff"/><rect x="629" y="401" width="57" height="57" fill="#ffffff"/><rect x="743" y="401" width="57" height="57" fill="#ffffff"/><rect x="857" y="401" width="57" height="57" fill="#ffffff"/><rect x="971" y="401" width="57" height="57" fill="#ffffff"/><rect x="1085" y="401" width="57" height="57" fill="#ffffff"/><rect x="1256" y="401" width="57" height="57" fill="#ffffff"/><rect x="1313" y="401" width="57" height="57" fill="#ffffff"/><rect x="686" y="458" width="57" height="57" fill="#ffffff"/><rect x="743" y="458" width="57" height="57" fill="#ffffff"/><rect x="914" y="458" width="57" height="57" fill="#ffffff"/><rect x="971" y="458" width="57" height="57" fill="#ffffff"/><rect x="1028" y="458" width="57" height="57" fill="#ffffff"/><rect x="1142" y="458" width="57" height="57" fill="#ffffff"/><rect x="1256" y="458" width="57" height="57" fill="#ffffff"/><rect x="629" y="515" width="57" height="57" fill="#ffffff"/><rect x="743" y="515" width="57" height="57" fill="#ffffff"/><rect x="857" y="515" width="57" height="57" fill="#ffffff"/><rect x="971" y="515" width="57" height="57" fill="#ffffff"/><rect x="1085" y="515" width="57" height="57" fill="#ffffff"/><rect x="1199" y="515" width="57" height="57" fill="#ffffff"/><rect x="1313" y="515" width="57" height="57" fill="#ffffff"/><rect x="686" y="572" width="57" height="57" fill="#ffffff"/><rect x="857" y="572" width="57" height="57" fill="#ffffff"/><rect x="971" y="572" width="57" height="57" fill="#ffffff"/><rect x="1028" y="572" width="57" height="57" fill="#ffffff"/><rect x="1142" y="572" width="57" height="57" fill="#ffffff"/><rect x="1199" y="572" width="57" height="57" fill="#ffffff"/><rect x="1256" y="572" width="57" height="57" fill="#ffffff"/><rect x="173" y="629" width="57" height="57" fill="#ffffff"/><rect x="230" y="629" width="57" height="57" fill="#ffffff"/><rect x="458" y="629" width="57" height="57" fill="#ffffff"/><rect x="515" y="629" width="57" height="57" fill="#ffffff"/><rect x="572" y="629" width="57" height="57" fill="#ffffff"/><rect x="686" y="629" width="57" height="57" fill="#ffffff"/><rect x="743" y="629" width="57" height="57" fill="#ffffff"/><rect x="857" y="629" width="57" height="57" fill="#ffffff"/><rect x="971" y="629" width="57" height="57" fill="#ffffff"/><rect x="1028" y="629" width="57" height="57" fill="#ffffff"/><rect x="1313" y="629" width="57" height="57" fill="#ffffff"/><rect x="1541" y="629" width="57" height="57" fill="#ffffff"/><rect x="1598" y="629" width="57" height="57" fill="#ffffff"/><rect x="173" y="686" width="57" height="57" fill="#ffffff"/><rect x="458" y="686" width="57" height="57" fill="#ffffff"/><rect x="572" y="686" width="57" height="57" fill="#ffffff"/><rect x="743" y="686" width="57" height="57" fill="#ffffff"/><rect x="971" y="686" width="57" height="57" fill="#ffffff"/><rect x="1085" y="686" width="57" height="57" fill="#ffffff"/><rect x="1313" y="686" width="57" height="57" fill="#ffffff"/><rect x="1370" y="686" width="57" height="57" fill="#ffffff"/><rect x="1427" y="686" width="57" height="57" fill="#ffffff"/><rect x="1598" y="686" width="57" height="57" fill="#ffffff"/><rect x="1655" y="686" width="57" height="57" fill="#ffffff"/><rect x="1769" y="686" width="57" height="57" fill="#ffffff"/><rect x="173" y="743" width="57" height="57" fill="#ffffff"/><rect x="287" y="743" width="57" height="57" fill="#ffffff"/><rect x="344" y="743" width="57" height="57" fill="#ffffff"/><rect x="401" y="743" width="57" height="57" fill="#ffffff"/><rect x="458" y="743" width="57" height="57" fill="#ffffff"/><rect x="515" y="743" width="57" height="57" fill="#ffffff"/><rect x="572" y="743" width="57" height="57" fill="#ffffff"/><rect x="629" y="743" width="57" height="57" fill="#ffffff"/><rect x="686" y="743" width="57" height="57" fill="#ffffff"/><rect x="800" y="743" width="57" height="57" fill="#ffffff"/><rect x="857" y="743" width="57" height="57" fill="#ffffff"/><rect x="914" y="743" width="57" height="57" fill="#ffffff"/><rect x="971" y="743" width="57" height="57" fill="#ffffff"/><rect x="1142" y="743" width="57" height="57" fill="#ffffff"/><rect x="1256" y="743" width="57" height="57" fill="#ffffff"/><rect x="1313" y="743" width="57" height="57" fill="#ffffff"/><rect x="1598" y="743" width="57" height="57" fill="#ffffff"/><rect x="1655" y="743" width="57" height="57" fill="#ffffff"/><rect x="173" y="800" width="57" height="57" fill="#ffffff"/><rect x="230" y="800" width="57" height="57" fill="#ffffff"/><rect x="401" y="800" width="57" height="57" fill="#ffffff"/><rect x="458" y="800" width="57" height="57" fill="#ffffff"/><rect x="572" y="800" width="57" height="57" fill="#ffffff"/><rect x="629" y="800" width="57" height="57" fill="#ffffff"/><rect x="743" y="800" width="57" height="57" fill="#ffffff"/><rect x="800" y="800" width="57" height="57" fill="#ffffff"/><rect x="1028" y="800" width="57" height="57" fill="#ffffff"/><rect x="1085" y="800" width="57" height="57" fill="#ffffff"/><rect x="1199" y="800" width="57" height="57" fill="#ffffff"/><rect x="1256" y="800" width="57" height="57" fill="#ffffff"/><rect x="1313" y="800" width="57" height="57" fill="#ffffff"/><rect x="1427" y="800" width="57" height="57" fill="#ffffff"/><rect x="1484" y="800" width="57" height="57" fill="#ffffff"/><rect x="1541" y="800" width="57" height="57" fill="#ffffff"/><rect x="1598" y="800" width="57" height="57" fill="#ffffff"/><rect x="1712" y="800" width="57" height="57" fill="#ffffff"/><rect x="1769" y="800" width="57" height="57" fill="#ffffff"/><rect x="401" y="857" width="57" height="57" fill="#ffffff"/><rect x="515" y="857" width="57" height="57" fill="#ffffff"/><rect x="629" y="857" width="57" height="57" fill="#ffffff"/><rect x="686" y="857" width="57" height="57" fill="#ffffff"/><rect x="743" y="857" width="57" height="57" fill="#ffffff"/><rect x="914" y="857" width="57" height="57" fill="#ffffff"/><rect x="1028" y="857" width="57" height="57" fill="#ffffff"/><rect x="1142" y="857" width="57" height="57" fill="#ffffff"/><rect x="1199" y="857" width="57" height="57" fill="#ffffff"/><rect x="1256" y="857" width="57" height="57" fill="#ffffff"/><rect x="1313" y="857" width="57" height="57" fill="#ffffff"/><rect x="1484" y="857" width="57" height="57" fill="#ffffff"/><rect x="1598" y="857" width="57" height="57" fill="#ffffff"/><rect x="1655" y="857" width="57" height="57" fill="#ffffff"/><rect x="1769" y="857" width="57" height="57" fill="#ffffff"/><rect x="230" y="914" width="57" height="57" fill="#ffffff"/><rect x="572" y="914" width="57" height="57" fill="#ffffff"/><rect x="686" y="914" width="57" height="57" fill="#ffffff"/><rect x="743" y="914" width="57" height="57" fill="#ffffff"/><rect x="857" y="914" width="57" height="57" fill="#ffffff"/><rect x="971" y="914" width="57" height="57" fill="#ffffff"/><rect x="1028" y="914" width="57" height="57" fill="#ffffff"/><rect x="1256" y="914" width="57" height="57" fill="#ffffff"/><rect x="1427" y="914" width="57" height="57" fill="#ffffff"/><rect x="1484" y="914" width="57" height="57" fill="#ffffff"/><rect x="1598" y="914" width="57" height="57" fill="#ffffff"/><rect x="230" y="971" width="57" height="57" fill="#ffffff"/><rect x="515" y="971" width="57" height="57" fill="#ffffff"/><rect x="629" y="971" width="57" height="57" fill="#ffffff"/><rect x="914" y="971" width="57" height="57" fill="#ffffff"/><rect x="971" y="971" width="57" height="57" fill="#ffffff"/><rect x="1028" y="971" width="57" height="57" fill="#ffffff"/><rect x="1142" y="971" width="57" height="57" fill="#ffffff"/><rect x="1313" y="971" width="57" height="57" fill="#ffffff"/><rect x="1598" y="971" width="57" height="57" fill="#ffffff"/><rect x="1655" y="971" width="57" height="57" fill="#ffffff"/><rect x="1712" y="971" width="57" height="57" fill="#ffffff"/><rect x="1769" y="971" width="57" height="57" fill="#ffffff"/><rect x="173" y="1028" width="57" height="57" fill="#ffffff"/><rect x="287" y="1028" width="57" height="57" fill="#ffffff"/><rect x="344" y="1028" width="57" height="57" fill="#ffffff"/><rect x="572" y="1028" width="57" height="57" fill="#ffffff"/><rect x="629" y="1028" width="57" height="57" fill="#ffffff"/><rect x="743" y="1028" width="57" height="57" fill="#ffffff"/><rect x="857" y="1028" width="57" height="57" fill="#ffffff"/><rect x="914" y="1028" width="57" height="57" fill="#ffffff"/><rect x="971" y="1028" width="57" height="57" fill="#ffffff"/><rect x="1028" y="1028" width="57" height="57" fill="#ffffff"/><rect x="1256" y="1028" width="57" height="57" fill="#ffffff"/><rect x="1370" y="1028" width="57" height="57" fill="#ffffff"/><rect x="1541" y="1028" width="57" height="57" fill="#ffffff"/><rect x="1655" y="1028" width="57" height="57" fill="#ffffff"/><rect x="173" y="1085" width="57" height="57" fill="#ffffff"/><rect x="230" y="1085" width="57" height="57" fill="#ffffff"/><rect x="287" y="1085" width="57" height="57" fill="#ffffff"/><rect x="344" y="1085" width="57" height="57" fill="#ffffff"/><rect x="458" y="1085" width="57" height="57" fill="#ffffff"/><rect x="515" y="1085" width="57" height="57" fill="#ffffff"/><rect x="572" y="1085" width="57" height="57" fill="#ffffff"/><rect x="686" y="1085" width="57" height="57" fill="#ffffff"/><rect x="857" y="1085" width="57" height="57" fill="#ffffff"/><rect x="971" y="1085" width="57" height="57" fill="#ffffff"/><rect x="1028" y="1085" width="57" height="57" fill="#ffffff"/><rect x="1085" y="1085" width="57" height="57" fill="#ffffff"/><rect x="1142" y="1085" width="57" height="57" fill="#ffffff"/><rect x="1199" y="1085" width="57" height="57" fill="#ffffff"/><rect x="1313" y="1085" width="57" height="57" fill="#ffffff"/><rect x="1484" y="1085" width="57" height="57" fill="#ffffff"/><rect x="1541" y="1085" width="57" height="57" fill="#ffffff"/><rect x="173" y="1142" width="57" height="57" fill="#ffffff"/><rect x="230" y="1142" width="57" height="57" fill="#ffffff"/><rect x="287" y="1142" width="57" height="57" fill="#ffffff"/><rect x="344" y="1142" width="57" height="57" fill="#ffffff"/><rect x="572" y="1142" width="57" height="57" fill="#ffffff"/><rect x="686" y="1142" width="57" height="57" fill="#ffffff"/><rect x="971" y="1142" width="57" height="57" fill="#ffffff"/><rect x="1085" y="1142" width="57" height="57" fill="#ffffff"/><rect x="1256" y="1142" width="57" height="57" fill="#ffffff"/><rect x="1313" y="1142" width="57" height="57" fill="#ffffff"/><rect x="1427" y="1142" width="57" height="57" fill="#ffffff"/><rect x="1484" y="1142" width="57" height="57" fill="#ffffff"/><rect x="1598" y="1142" width="57" height="57" fill="#ffffff"/><rect x="1712" y="1142" width="57" height="57" fill="#ffffff"/><rect x="173" y="1199" width="57" height="57" fill="#ffffff"/><rect x="230" y="1199" width="57" height="57" fill="#ffffff"/><rect x="287" y="1199" width="57" height="57" fill="#ffffff"/><rect x="401" y="1199" width="57" height="57" fill="#ffffff"/><rect x="458" y="1199" width="57" height="57" fill="#ffffff"/><rect x="515" y="1199" width="57" height="57" fill="#ffffff"/><rect x="572" y="1199" width="57" height="57" fill="#ffffff"/><rect x="686" y="1199" width="57" height="57" fill="#ffffff"/><rect x="857" y="1199" width="57" height="57" fill="#ffffff"/><rect x="971" y="1199" width="57" height="57" fill="#ffffff"/><rect x="1028" y="1199" width="57" height="57" fill="#ffffff"/><rect x="1085" y="1199" width="57" height="57" fill="#ffffff"/><rect x="1313" y="1199" width="57" height="57" fill="#ffffff"/><rect x="1427" y="1199" width="57" height="57" fill="#ffffff"/><rect x="1484" y="1199" width="57" height="57" fill="#ffffff"/><rect x="1712" y="1199" width="57" height="57" fill="#ffffff"/><rect x="173" y="1256" width="57" height="57" fill="#ffffff"/><rect x="458" y="1256" width="57" height="57" fill="#ffffff"/><rect x="572" y="1256" width="57" height="57" fill="#ffffff"/><rect x="743" y="1256" width="57" height="57" fill="#ffffff"/><rect x="800" y="1256" width="57" height="57" fill="#ffffff"/><rect x="914" y="1256" width="57" height="57" fill="#ffffff"/><rect x="971" y="1256" width="57" height="57" fill="#ffffff"/><rect x="1028" y="1256" width="57" height="57" fill="#ffffff"/><rect x="1085" y="1256" width="57" height="57" fill="#ffffff"/><rect x="1142" y="1256" width="57" height="57" fill="#ffffff"/><rect x="1199" y="1256" width="57" height="57" fill="#ffffff"/><rect x="1256" y="1256" width="57" height="57" fill="#ffffff"/><rect x="1313" y="1256" width="57" height="57" fill="#ffffff"/><rect x="1427" y="1256" width="57" height="57" fill="#ffffff"/><rect x="1484" y="1256" width="57" height="57" fill="#ffffff"/><rect x="1541" y="1256" width="57" height="57" fill="#ffffff"/><rect x="1769" y="1256" width="57" height="57" fill="#ffffff"/><rect x="173" y="1313" width="57" height="57" fill="#ffffff"/><rect x="458" y="1313" width="57" height="57" fill="#ffffff"/><rect x="515" y="1313" width="57" height="57" fill="#ffffff"/><rect x="572" y="1313" width="57" height="57" fill="#ffffff"/><rect x="800" y="1313" width="57" height="57" fill="#ffffff"/><rect x="971" y="1313" width="57" height="57" fill="#ffffff"/><rect x="1028" y="1313" width="57" height="57" fill="#ffffff"/><rect x="1199" y="1313" width="57" height="57" fill="#ffffff"/><rect x="1313" y="1313" width="57" height="57" fill="#ffffff"/><rect x="1370" y="1313" width="57" height="57" fill="#ffffff"/><rect x="1427" y="1313" width="57" height="57" fill="#ffffff"/><rect x="1484" y="1313" width="57" height="57" fill="#ffffff"/><rect x="1541" y="1313" width="57" height="57" fill="#ffffff"/><rect x="1598" y="1313" width="57" height="57" fill="#ffffff"/><rect x="1655" y="1313" width="57" height="57" fill="#ffffff"/><rect x="1712" y="1313" width="57" height="57" fill="#ffffff"/><rect x="629" y="1370" width="57" height="57" fill="#ffffff"/><rect x="743" y="1370" width="57" height="57" fill="#ffffff"/><rect x="857" y="1370" width="57" height="57" fill="#ffffff"/><rect x="1199" y="1370" width="57" height="57" fill="#ffffff"/><rect x="1313" y="1370" width="57" height="57" fill="#ffffff"/><rect x="1541" y="1370" width="57" height="57" fill="#ffffff"/><rect x="1655" y="1370" width="57" height="57" fill="#ffffff"/><rect x="1769" y="1370" width="57" height="57" fill="#ffffff"/><rect x="629" y="1427" width="57" height="57" fill="#ffffff"/><rect x="914" y="1427" width="57" height="57" fill="#ffffff"/><rect x="1028" y="1427" width="57" height="57" fill="#ffffff"/><rect x="1085" y="1427" width="57" height="57" fill="#ffffff"/><rect x="1142" y="1427" width="57" height="57" fill="#ffffff"/><rect x="1313" y="1427" width="57" height="57" fill="#ffffff"/><rect x="1427" y="1427" width="57" height="57" fill="#ffffff"/><rect x="1541" y="1427" width="57" height="57" fill="#ffffff"/><rect x="1598" y="1427" width="57" height="57" fill="#ffffff"/><rect x="1655" y="1427" width="57" height="57" fill="#ffffff"/><rect x="629" y="1484" width="57" height="57" fill="#ffffff"/><rect x="857" y="1484" width="57" height="57" fill="#ffffff"/><rect x="971" y="1484" width="57" height="57" fill="#ffffff"/><rect x="1028" y="1484" width="57" height="57" fill="#ffffff"/><rect x="1085" y="1484" width="57" height="57" fill="#ffffff"/><rect x="1142" y="1484" width="57" height="57" fill="#ffffff"/><rect x="1199" y="1484" width="57" height="57" fill="#ffffff"/><rect x="1256" y="1484" width="57" height="57" fill="#ffffff"/><rect x="1313" y="1484" width="57" height="57" fill="#ffffff"/><rect x="1541" y="1484" width="57" height="57" fill="#ffffff"/><rect x="1655" y="1484" width="57" height="57" fill="#ffffff"/><rect x="1769" y="1484" width="57" height="57" fill="#ffffff"/><rect x="743" y="1541" width="57" height="57" fill="#ffffff"/><rect x="800" y="1541" width="57" height="57" fill="#ffffff"/><rect x="857" y="1541" width="57" height="57" fill="#ffffff"/><rect x="914" y="1541" width="57" height="57" fill="#ffffff"/><rect x="1028" y="1541" width="57" height="57" fill="#ffffff"/><rect x="1085" y="1541" width="57" height="57" fill="#ffffff"/><rect x="1256" y="1541" width="57" height="57" fill="#ffffff"/><rect x="1313" y="1541" width="57" height="57" fill="#ffffff"/><rect x="1370" y="1541" width="57" height="57" fill="#ffffff"/><rect x="1427" y="1541" width="57" height="57" fill="#ffffff"/><rect x="1484" y="1541" width="57" height="57" fill="#ffffff"/><rect x="1541" y="1541" width="57" height="57" fill="#ffffff"/><rect x="1598" y="1541" width="57" height="57" fill="#ffffff"/><rect x="1712" y="1541" width="57" height="57" fill="#ffffff"/><rect x="686" y="1598" width="57" height="57" fill="#ffffff"/><rect x="971" y="1598" width="57" height="57" fill="#ffffff"/><rect x="1028" y="1598" width="57" height="57" fill="#ffffff"/><rect x="1085" y="1598" width="57" height="57" fill="#ffffff"/><rect x="1256" y="1598" width="57" height="57" fill="#ffffff"/><rect x="1313" y="1598" width="57" height="57" fill="#ffffff"/><rect x="1370" y="1598" width="57" height="57" fill="#ffffff"/><rect x="1484" y="1598" width="57" height="57" fill="#ffffff"/><rect x="1712" y="1598" width="57" height="57" fill="#ffffff"/><rect x="686" y="1655" width="57" height="57" fill="#ffffff"/><rect x="800" y="1655" width="57" height="57" fill="#ffffff"/><rect x="857" y="1655" width="57" height="57" fill="#ffffff"/><rect x="1142" y="1655" width="57" height="57" fill="#ffffff"/><rect x="1256" y="1655" width="57" height="57" fill="#ffffff"/><rect x="1484" y="1655" width="57" height="57" fill="#ffffff"/><rect x="1655" y="1655" width="57" height="57" fill="#ffffff"/><rect x="1712" y="1655" width="57" height="57" fill="#ffffff"/><rect x="629" y="1712" width="57" height="57" fill="#ffffff"/><rect x="686" y="1712" width="57" height="57" fill="#ffffff"/><rect x="743" y="1712" width="57" height="57" fill="#ffffff"/><rect x="800" y="1712" width="57" height="57" fill="#ffffff"/><rect x="971" y="1712" width="57" height="57" fill="#ffffff"/><rect x="1028" y="1712" width="57" height="57" fill="#ffffff"/><rect x="1085" y="1712" width="57" height="57" fill="#ffffff"/><rect x="1370" y="1712" width="57" height="57" fill="#ffffff"/><rect x="1427" y="1712" width="57" height="57" fill="#ffffff"/><rect x="1598" y="1712" width="57" height="57" fill="#ffffff"/><rect x="1712" y="1712" width="57" height="57" fill="#ffffff"/><rect x="629" y="1769" width="57" height="57" fill="#ffffff"/><rect x="686" y="1769" width="57" height="57" fill="#ffffff"/><rect x="800" y="1769" width="57" height="57" fill="#ffffff"/><rect x="857" y="1769" width="57" height="57" fill="#ffffff"/><rect x="1028" y="1769" width="57" height="57" fill="#ffffff"/><rect x="1142" y="1769" width="57" height="57" fill="#ffffff"/><rect x="1256" y="1769" width="57" height="57" fill="#ffffff"/><rect x="1313" y="1769" width="57" height="57" fill="#ffffff"/><rect x="1370" y="1769" width="57" height="57" fill="#ffffff"/><rect x="1427" y="1769" width="57" height="57" fill="#ffffff"/><rect x="1541" y="1769" width="57" height="57" fill="#ffffff"/><rect x="1598" y="1769" width="57" height="57" fill="#ffffff"/><rect x="1655" y="1769" width="57" height="57" fill="#ffffff"/><rect x="173" y="173" width="399" height="57" fill="#ffffff"/><rect x="173" y="230" width="57" height="285" fill="#ffffff"/><rect x="515" y="230" width="57" height="285" fill="#ffffff"/><rect x="173" y="515" width="399" height="57" fill="#ffffff"/><rect x="173" y="173" width="57" height="57" fill="#ffffff"/><rect x="230" y="173" width="57" height="57" fill="#ffffff"/><rect x="287" y="173" width="57" height="57" fill="#ffffff"/><rect x="344" y="173" width="57" height="57" fill="#ffffff"/><rect x="401" y="173" width="57" height="57" fill="#ffffff"/><rect x="458" y="173" width="57" height="57" fill="#ffffff"/><rect x="515" y="173" width="57" height="57" fill="#ffffff"/><rect x="173" y="230" width="57" height="57" fill="#ffffff"/><rect x="515" y="230" width="57" height="57" fill="#ffffff"/><rect x="173" y="287" width="57" height="57" fill="#ffffff"/><rect x="515" y="287" width="57" height="57" fill="#ffffff"/><rect x="173" y="344" width="57" height="57" fill="#ffffff"/><rect x="515" y="344" width="57" height="57" fill="#ffffff"/><rect x="173" y="401" width="57" height="57" fill="#ffffff"/><rect x="515" y="401" width="57" height="57" fill="#ffffff"/><rect x="173" y="458" width="57" height="57" fill="#ffffff"/><rect x="515" y="458" width="57" height="57" fill="#ffffff"/><rect x="173" y="515" width="57" height="57" fill="#ffffff"/><rect x="230" y="515" width="57" height="57" fill="#ffffff"/><rect x="287" y="515" width="57" height="57" fill="#ffffff"/><rect x="344" y="515" width="57" height="57" fill="#ffffff"/><rect x="401" y="515" width="57" height="57" fill="#ffffff"/><rect x="458" y="515" width="57" height="57" fill="#ffffff"/><rect x="515" y="515" width="57" height="57" fill="#ffffff"/><rect x="287" y="287" width="171" height="171" fill="#ffffff"/><rect x="287" y="287" width="57" height="57" fill="#ffffff"/><rect x="344" y="287" width="57" height="57" fill="#ffffff"/><rect x="401" y="287" width="57" height="57" fill="#ffffff"/><rect x="287" y="344" width="57" height="57" fill="#ffffff"/><rect x="344" y="344" width="57" height="57" fill="#ffffff"/><rect x="401" y="344" width="57" height="57" fill="#ffffff"/><rect x="287" y="401" width="57" height="57" fill="#ffffff"/><rect x="344" y="401" width="57" height="57" fill="#ffffff"/><rect x="401" y="401" width="57" height="57" fill="#ffffff"/><rect x="1427" y="173" width="399" height="57" fill="#ffffff"/><rect x="1427" y="230" width="57" height="285" fill="#ffffff"/><rect x="1769" y="230" width="57" height="285" fill="#ffffff"/><rect x="1427" y="515" width="399" height="57" fill="#ffffff"/><rect x="1427" y="173" width="57" height="57" fill="#ffffff"/><rect x="1484" y="173" width="57" height="57" fill="#ffffff"/><rect x="1541" y="173" width="57" height="57" fill="#ffffff"/><rect x="1598" y="173" width="57" height="57" fill="#ffffff"/><rect x="1655" y="173" width="57" height="57" fill="#ffffff"/><rect x="1712" y="173" width="57" height="57" fill="#ffffff"/><rect x="1769" y="173" width="57" height="57" fill="#ffffff"/><rect x="1427" y="230" width="57" height="57" fill="#ffffff"/><rect x="1769" y="230" width="57" height="57" fill="#ffffff"/><rect x="1427" y="287" width="57" height="57" fill="#ffffff"/><rect x="1769" y="287" width="57" height="57" fill="#ffffff"/><rect x="1427" y="344" width="57" height="57" fill="#ffffff"/><rect x="1769" y="344" width="57" height="57" fill="#ffffff"/><rect x="1427" y="401" width="57" height="57" fill="#ffffff"/><rect x="1769" y="401" width="57" height="57" fill="#ffffff"/><rect x="1427" y="458" width="57" height="57" fill="#ffffff"/><rect x="1769" y="458" width="57" height="57" fill="#ffffff"/><rect x="1427" y="515" width="57" height="57" fill="#ffffff"/><rect x="1484" y="515" width="57" height="57" fill="#ffffff"/><rect x="1541" y="515" width="57" height="57" fill="#ffffff"/><rect x="1598" y="515" width="57" height="57" fill="#ffffff"/><rect x="1655" y="515" width="57" height="57" fill="#ffffff"/><rect x="1712" y="515" width="57" height="57" fill="#ffffff"/><rect x="1769" y="515" width="57" height="57" fill="#ffffff"/><rect x="1541" y="287" width="171" height="171" fill="#ffffff"/><rect x="1541" y="287" width="57" height="57" fill="#ffffff"/><rect x="1598" y="287" width="57" height="57" fill="#ffffff"/><rect x="1655" y="287" width="57" height="57" fill="#ffffff"/><rect x="1541" y="344" width="57" height="57" fill="#ffffff"/><rect x="1598" y="344" width="57" height="57" fill="#ffffff"/><rect x="1655" y="344" width="57" height="57" fill="#ffffff"/><rect x="1541" y="401" width="57" height="57" fill="#ffffff"/><rect x="1598" y="401" width="57" height="57" fill="#ffffff"/><rect x="1655" y="401" width="57" height="57" fill="#ffffff"/><rect x="173" y="1427" width="399" height="57" fill="#ffffff"/><rect x="173" y="1484" width="57" height="285" fill="#ffffff"/><rect x="515" y="1484" width="57" height="285" fill="#ffffff"/><rect x="173" y="1769" width="399" height="57" fill="#ffffff"/><rect x="173" y="1427" width="57" height="57" fill="#ffffff"/><rect x="230" y="1427" width="57" height="57" fill="#ffffff"/><rect x="287" y="1427" width="57" height="57" fill="#ffffff"/><rect x="344" y="1427" width="57" height="57" fill="#ffffff"/><rect x="401" y="1427" width="57" height="57" fill="#ffffff"/><rect x="458" y="1427" width="57" height="57" fill="#ffffff"/><rect x="515" y="1427" width="57" height="57" fill="#ffffff"/><rect x="173" y="1484" width="57" height="57" fill="#ffffff"/><rect x="515" y="1484" width="57" height="57" fill="#ffffff"/><rect x="173" y="1541" width="57" height="57" fill="#ffffff"/><rect x="515" y="1541" width="57" height="57" fill="#ffffff"/><rect x="173" y="1598" width="57" height="57" fill="#ffffff"/><rect x="515" y="1598" width="57" height="57" fill="#ffffff"/><rect x="173" y="1655" width="57" height="57" fill="#ffffff"/><rect x="515" y="1655" width="57" height="57" fill="#ffffff"/><rect x="173" y="1712" width="57" height="57" fill="#ffffff"/><rect x="515" y="1712" width="57" height="57" fill="#ffffff"/><rect x="173" y="1769" width="57" height="57" fill="#ffffff"/><rect x="230" y="1769" width="57" height="57" fill="#ffffff"/><rect x="287" y="1769" width="57" height="57" fill="#ffffff"/><rect x="344" y="1769" width="57" height="57" fill="#ffffff"/><rect x="401" y="1769" width="57" height="57" fill="#ffffff"/><rect x="458" y="1769" width="57" height="57" fill="#ffffff"/><rect x="515" y="1769" width="57" height="57" fill="#ffffff"/><rect x="287" y="1541" width="171" height="171" fill="#ffffff"/><rect x="287" y="1541" width="57" height="57" fill="#ffffff"/><rect x="344" y="1541" width="57" height="57" fill="#ffffff"/><rect x="401" y="1541" width="57" height="57" fill="#ffffff"/><rect x="287" y="1598" width="57" height="57" fill="#ffffff"/><rect x="344" y="1598" width="57" height="57" fill="#ffffff"/><rect x="401" y="1598" width="57" height="57" fill="#ffffff"/><rect x="287" y="1655" width="57" height="57" fill="#ffffff"/><rect x="344" y="1655" width="57" height="57" fill="#ffffff"/><rect x="401" y="1655" width="57" height="57" fill="#ffffff"/></svg>
