<?xml version="1.0" encoding="UTF-8"?>
<svg version="1.1" xmlns="http://www.w3.org/2000/svg" width="1024" height="1024">
<path d="M0 0 C1.303019 -0.00866357 1.303019 -0.00866357 2.63236162 -0.01750216 C3.58406424 -0.01367737 4.53576687 -0.00985258 5.51630896 -0.00591189 C6.53353975 -0.00971756 7.55077054 -0.01352323 8.5988265 -0.01744422 C12.03521148 -0.02781736 15.47143303 -0.02384329 18.90782946 -0.02000433 C21.38529951 -0.02445362 23.86276812 -0.02976664 26.34023464 -0.03587306 C31.74112569 -0.04712381 37.14196897 -0.05208524 42.54286784 -0.05155188 C50.57420807 -0.05075963 58.60550553 -0.0612983 66.63683435 -0.07396745 C82.65057873 -0.09872592 98.66431278 -0.10749215 114.67807367 -0.11250394 C115.5076926 -0.11276511 116.33731153 -0.11302629 117.19207042 -0.11329538 C118.0233248 -0.11355565 118.85457917 -0.11381592 119.71102307 -0.11408409 C128.91600251 -0.11716438 138.12097907 -0.12366839 147.32595652 -0.13029677 C175.11912952 -0.14994616 202.91229941 -0.16634984 230.7054798 -0.1691733 C231.59473822 -0.16926736 232.48399665 -0.16936142 233.40020229 -0.16945833 C237.00410188 -0.16983682 240.60800147 -0.17020082 244.21190106 -0.17056131 C246.92452396 -0.17083303 249.63714687 -0.17110971 252.34976977 -0.17138678 C253.24612337 -0.1714748 254.14247697 -0.17156282 255.0659928 -0.17165351 C283.23548577 -0.17455952 311.40491015 -0.19665945 339.57437915 -0.23291022 C371.20722144 -0.27361669 402.84001699 -0.29733172 434.47288692 -0.29763281 C437.84454408 -0.29772964 441.21620123 -0.29789636 444.58785838 -0.29811293 C445.41807386 -0.29815704 446.24828933 -0.29820116 447.10366285 -0.29824661 C460.47681055 -0.2993675 473.84988965 -0.31679125 487.22301524 -0.33993225 C500.6584433 -0.36275014 514.09377846 -0.36701597 527.52921877 -0.35238295 C535.51519348 -0.34421824 543.50087602 -0.34996898 551.48681543 -0.3755638 C557.44386419 -0.39311862 563.40068849 -0.38465752 569.35774013 -0.3659187 C571.77226792 -0.36240545 574.18682564 -0.36741067 576.60131416 -0.38162314 C579.87520419 -0.3996579 583.14758686 -0.38708398 586.42142981 -0.36667544 C587.36610894 -0.37923881 588.31078806 -0.39180218 589.28409383 -0.40474626 C594.65916806 -0.33267136 598.00584034 0.48579726 602.29093505 3.79160124 C605.10681406 6.80497155 605.90759455 9.54110917 605.90832943 13.6052326 C605.91333646 14.4758578 605.9183435 15.346483 605.92350227 16.24349079 C605.91881993 17.19736945 605.9141376 18.15124811 605.90931338 19.13403219 C605.91222026 20.15355054 605.91512714 21.1730689 605.91812211 22.22348174 C605.92546826 25.66763698 605.91845726 29.11161663 605.91159838 32.55577081 C605.91390099 35.03879032 605.91707617 37.52180915 605.92105287 40.00482655 C605.92768292 45.4177953 605.92804961 50.83070954 605.92295855 56.24367899 C605.91540856 64.29285796 605.91925327 72.34200317 605.92537517 80.3911819 C605.93592024 94.76541556 605.93498843 109.13963148 605.92921734 123.51386684 C605.92419144 136.09342474 605.92287039 148.67297611 605.92526263 161.25253481 C605.92549179 162.50290508 605.92549179 162.50290508 605.92572557 163.77853535 C605.92634822 167.16209617 605.92698502 170.54565699 605.9276451 173.92921781 C605.93376692 205.68779747 605.92821022 237.4463658 605.9174513 269.20494371 C605.90796055 297.43481227 605.90880818 325.66466279 605.91837329 353.89453119 C605.92907754 385.59254034 605.93333193 417.29053948 605.92714876 448.98855019 C605.9265073 452.36635015 605.92588162 455.74415012 605.92526263 459.12195009 C605.92510448 459.95368356 605.92494632 460.78541704 605.92478337 461.64235455 C605.92250627 474.21484429 605.92517302 486.7873268 605.93022174 499.35981554 C605.93593267 513.65285492 605.93452685 527.94587374 605.92366025 542.23891055 C605.91777608 550.24298614 605.91742099 558.24701721 605.9249526 566.25109167 C605.92994918 572.21807812 605.9245523 578.18500643 605.91500345 584.15198935 C605.91275919 586.57320716 605.91392848 588.99443089 605.91875502 591.41564494 C605.92479042 594.69332559 605.91864546 597.97075979 605.90931338 601.24842733 C605.91399571 602.19996483 605.91867805 603.15150233 605.92350227 604.13187429 C605.89780694 608.61263318 605.79235694 612.18834729 603.6576311 616.25415033 C602.6676311 616.25415033 601.6776311 616.25415033 600.6576311 616.25415033 C600.6576311 617.24415033 600.6576311 618.23415033 600.6576311 619.25415033 C595.78534162 621.8046937 591.08241856 621.53591742 585.72555083 621.51421255 C584.71253092 621.51801822 583.699511 621.52182389 582.65579352 621.52574489 C579.23974419 621.5361033 575.82385972 621.53214663 572.40779895 621.52830499 C569.94255293 621.53275508 567.47730835 621.53806836 565.01206589 621.54417372 C559.640955 621.55541812 554.26989211 621.56038619 548.89877337 621.55985254 C540.91167827 621.55905986 532.92462612 621.56960339 524.93754249 621.58226811 C509.01179183 621.60701855 493.08605158 621.61579191 477.16028434 621.6208046 C475.92289935 621.62119636 475.92289935 621.62119636 474.66051668 621.62159604 C473.83395781 621.62185631 473.00739894 621.62211659 472.15579283 621.62238475 C463.00049791 621.62546574 453.84520589 621.63196999 444.68991297 621.63859743 C417.04424924 621.65824581 389.39858864 621.67465012 361.75291747 621.67747396 C360.86849886 621.67756802 359.98408025 621.67766208 359.07286108 621.677759 C355.48861456 621.67813748 351.90436804 621.67850148 348.32012152 621.67886197 C345.62232198 621.6791337 342.92452244 621.67941037 340.2267229 621.67968744 C339.33526747 621.67977546 338.44381204 621.67986349 337.52534282 621.67995418 C309.51008172 621.68286015 281.49488959 621.7049604 253.47965258 621.74121088 C222.01599351 621.78192228 190.55238143 621.80563241 159.08869457 621.80593348 C155.73472855 621.8060303 152.38076254 621.80619702 149.02679652 621.80641359 C147.78801837 621.80647976 147.78801837 621.80647976 146.52421439 621.80654727 C133.22477579 621.80766788 119.92540619 621.82508757 106.62598981 621.84823291 C93.26347984 621.87105694 79.90106328 621.87531263 66.53854098 621.86068361 C58.59720647 621.85252234 50.65616584 621.85825756 42.71486686 621.88386446 C36.78931384 621.90143199 30.86398623 621.89294807 24.93843029 621.87421937 C22.53804637 621.87070877 20.1376323 621.87570027 17.73728796 621.8899238 C14.48008446 621.90798505 11.22439158 621.89536466 7.96723479 621.8749761 C7.03028156 621.88753947 6.09332834 621.90010284 5.12798259 621.91304693 C-1.16448062 621.82844771 -5.59587164 620.51313801 -10.3423689 616.25415033 C-14.03604747 611.24071662 -13.76637213 606.15464081 -13.72547895 600.16778749 C-13.73291822 598.64146174 -13.73291822 598.64146174 -13.74050778 597.08430111 C-13.75350895 593.65878705 -13.74506466 590.23365989 -13.73677808 586.80813593 C-13.74166482 584.33377609 -13.74785362 581.85941855 -13.75523597 579.3850649 C-13.76824711 573.99711907 -13.7718796 568.60928717 -13.76727659 563.22133631 C-13.76044945 555.20924385 -13.77069572 547.19723653 -13.78423414 539.1851559 C-13.80916109 524.04374147 -13.81366235 508.90236227 -13.81176817 493.76093061 C-13.81039582 482.06967918 -13.81420926 470.37843999 -13.82169324 458.68719095 C-13.82274357 457.0083081 -13.82379119 455.32942525 -13.82483611 453.6505424 C-13.82535545 452.81716917 -13.82587479 451.98379594 -13.82640987 451.12516897 C-13.82693002 450.29028216 -13.82745016 449.45539535 -13.82798606 448.59520894 C-13.82851005 447.7589387 -13.82903405 446.92266846 -13.82957392 446.0610567 C-13.84416013 422.53570526 -13.8524384 399.01035832 -13.84782392 375.48500246 C-13.84765196 374.59788415 -13.84748001 373.71076583 -13.84730284 372.79676515 C-13.84641394 368.30036423 -13.84546912 363.80396333 -13.84450483 359.30756243 C-13.8443138 358.41454224 -13.84412277 357.52152206 -13.84392595 356.60144066 C-13.84353885 354.79553644 -13.84314853 352.98963221 -13.84275497 351.18372799 C-13.83678434 323.08102914 -13.8522248 294.97841264 -13.88436109 266.87573236 C-13.92042522 235.31134793 -13.93977249 203.74701571 -13.93482238 172.18260938 C-13.93435239 168.81798667 -13.93394214 165.45336396 -13.93357068 162.08874124 C-13.9334683 161.26026934 -13.93336591 160.43179744 -13.93326042 159.57822033 C-13.93206484 147.06350735 -13.94404258 134.54885072 -13.96271497 122.03415293 C-13.98393674 107.80380007 -13.98781744 93.57356554 -13.96841538 79.34320743 C-13.95807694 71.37743316 -13.96159013 63.41194735 -13.98494623 55.44619905 C-14.00083031 49.50248541 -13.99065617 43.55900405 -13.97022521 37.61529784 C-13.96601867 35.20754399 -13.9703078 32.79975766 -13.98382115 30.39203806 C-14.00091317 27.12489977 -13.98733618 23.85927584 -13.96598798 20.59219545 C-13.98440427 19.18238135 -13.98440427 19.18238135 -14.0031926 17.74408615 C-13.91848396 11.55953712 -12.62439609 6.88582142 -8.3423689 2.25415033 C-5.49795651 0.4535096 -3.33938057 0.00360274 0 0 Z " fill="#2D2274" transform="translate(216.3423689007759,201.74584966897964)"/>
</svg>
