<?xml version="1.0" encoding="UTF-8"?>
<svg version="1.1" xmlns="http://www.w3.org/2000/svg" width="1024" height="1024">
<path d="M0 0 C337.92 0 675.84 0 1024 0 C1024 337.92 1024 675.84 1024 1024 C686.08 1024 348.16 1024 0 1024 C0 686.08 0 348.16 0 0 Z " fill="#FDFCFB" transform="translate(0,0)"/>
<path d="M0 0 C1.01477295 -0.00465992 2.0295459 -0.00931984 3.07506955 -0.01412097 C6.49112003 -0.0261156 9.90677607 -0.01665809 13.3228302 -0.00736332 C15.79036547 -0.01153426 18.25789881 -0.01701045 20.72542858 -0.02368313 C26.09841296 -0.03515558 31.47128057 -0.03725665 36.84426498 -0.0311327 C44.83399586 -0.02205054 52.82364583 -0.03006644 60.8133705 -0.04142394 C75.08213375 -0.06110598 89.35086071 -0.06343536 103.6196343 -0.05822874 C116.10634705 -0.05367452 128.59304541 -0.05426705 141.07975769 -0.06006908 C142.75361703 -0.06082594 144.42747637 -0.06158192 146.1013357 -0.06233703 C148.62356885 -0.0634822 151.14580199 -0.06463208 153.66803513 -0.06579627 C177.12194274 -0.07650367 200.57584556 -0.081224 224.02975464 -0.07332611 C224.91415767 -0.07302894 225.7985607 -0.07273176 226.70976382 -0.07242559 C233.8921131 -0.06997656 241.07446232 -0.06736502 248.25681154 -0.06474145 C276.2789219 -0.054637 304.30097234 -0.06299722 332.32307434 -0.086236 C363.79441423 -0.11229291 395.26571805 -0.12516085 426.73706913 -0.11804825 C430.0909837 -0.11733217 433.44489828 -0.11665778 436.79881287 -0.1160078 C438.03757354 -0.11575309 438.03757354 -0.11575309 439.30135968 -0.11549323 C451.78129831 -0.11318783 464.26120351 -0.12117863 476.74113464 -0.13429928 C490.92908029 -0.14918888 505.11694743 -0.15008271 519.30489135 -0.13222837 C527.24882851 -0.12264379 535.19258274 -0.12414404 543.13650781 -0.14146306 C549.06041656 -0.15314424 554.98417219 -0.1440245 560.90807116 -0.12664068 C563.31040444 -0.12285247 565.71275967 -0.12588291 568.11507356 -0.13625234 C571.36991456 -0.14930757 574.62377292 -0.13794074 577.87857056 -0.12025452 C578.82049196 -0.12990503 579.76241337 -0.13955554 580.73287785 -0.14949849 C586.28548277 -0.08715858 589.63572313 0.53234648 593.93928528 4.38031673 C598.52456059 9.50466012 598.5066526 13.9305433 598.43985653 20.4722662 C598.44812778 21.99949074 598.44812778 21.99949074 598.45656613 23.55756831 C598.47021196 26.98521927 598.45523611 30.41215144 598.44049072 33.83978939 C598.44438174 36.31557504 598.45002058 38.79135846 598.45726162 41.26713657 C598.46896855 46.65818353 598.46819582 52.04901575 598.45648193 57.44004726 C598.43911088 65.45659253 598.44459434 73.47300838 598.45464884 81.48956031 C598.47185197 95.80619738 598.46629293 110.12275795 598.45129166 124.43939346 C598.43824826 136.96798668 598.43304229 149.49655334 598.43560982 162.02515316 C598.43585044 163.27094048 598.43585044 163.27094048 598.43609593 164.54189523 C598.43675949 167.91312829 598.4374619 171.28436134 598.43822127 174.65559439 C598.44524791 206.29088076 598.42974531 237.92612037 598.40359781 269.56139484 C598.38048215 297.67748245 598.37509429 325.79351864 598.3853302 353.90961361 C598.38793214 361.10892389 598.39051713 368.30823417 598.39292812 375.50754452 C598.39322557 376.39381937 598.39352302 377.28009421 598.39382948 378.19322588 C598.40144156 401.67549751 598.39503472 425.15776492 598.3842321 448.64003468 C598.38308428 451.1662692 598.3819411 453.69250372 598.38080528 456.21873824 C598.38005003 457.89462878 598.37928439 459.57051932 598.37850827 461.24640985 C598.37284589 473.7682024 598.37418263 486.28998165 598.3787365 498.81177425 C598.38383997 513.04729106 598.37801064 527.28275802 598.3578422 541.51826239 C598.34684076 549.4888276 598.34407661 557.45929487 598.35313073 565.4298631 C598.35895015 571.37360114 598.34915056 577.31724535 598.33313108 583.26096702 C598.3290703 585.67137333 598.33011354 588.08179449 598.33664995 590.49219537 C598.34475056 593.75778471 598.33454796 597.02281412 598.31960201 600.28836727 C598.32970849 601.70606242 598.32970849 601.70606242 598.34001914 603.15239787 C598.29385797 608.33503271 597.76027077 611.85281907 594.93928528 616.38031673 C594.27928528 616.38031673 593.61928528 616.38031673 592.93928528 616.38031673 C592.93928528 617.04031673 592.93928528 617.70031673 592.93928528 618.38031673 C587.07869346 621.39782157 582.34206089 621.80856683 575.80796146 621.76342678 C574.79769898 621.7683863 573.7874365 621.77334581 572.74656001 621.77845562 C569.35185797 621.79143771 565.95754758 621.78301852 562.56283569 621.77472591 C560.10823679 621.77961355 557.65364018 621.78580276 555.19904751 621.7931838 C549.85737601 621.80618731 544.51581939 621.80983002 539.17414284 621.80522442 C531.23087575 621.79839347 523.28769444 621.80864838 515.34443927 621.82218198 C500.33303781 621.84710044 485.32167191 621.85161061 470.31025309 621.84971601 C458.7196167 621.84834338 447.12899266 621.85215842 435.53835869 621.85964108 C433.87362967 621.86069141 432.20890066 621.86173902 430.54417164 621.86278394 C429.71781957 621.86330328 428.8914675 621.86382263 428.04007445 621.86435771 C427.21221854 621.86487785 426.38436263 621.86539799 425.53142017 621.8659339 C424.70218825 621.86645789 423.87295632 621.86698188 423.01859615 621.86752175 C399.6936518 621.88210645 376.36871198 621.89038687 353.04376316 621.88577175 C352.16432517 621.8855998 351.28488717 621.88542784 350.37879954 621.88525068 C345.9213722 621.88436177 341.46394486 621.88341696 337.00651754 621.88245267 C336.12124439 621.88226163 335.23597125 621.8820706 334.32387165 621.88187378 C332.53363453 621.88148669 330.74339742 621.88109636 328.95316031 621.8807028 C301.09197469 621.87473169 273.2308721 621.89017542 245.3697052 621.92230892 C214.07376302 621.95837322 182.77787349 621.97772036 151.48190922 621.97277021 C148.14594869 621.97230023 144.80998817 621.97188998 141.47402763 621.97151852 C140.65261798 621.97141613 139.83120833 621.97131374 138.98490748 621.97120826 C126.57749527 621.97001273 114.1701399 621.98198962 101.762743 622.0006628 C87.65501669 622.02188461 73.54740974 622.02576516 59.43967814 622.00636321 C51.54277316 621.99602511 43.64615916 621.99953715 35.74928039 622.02289407 C29.85687517 622.03877887 23.96470424 622.02860333 18.07230651 622.00817305 C15.68544378 622.00396673 13.29854828 622.00825492 10.9117201 622.02176899 C7.67276828 622.03886271 4.43534369 622.02528269 1.19645023 622.00393581 C0.26488174 622.01621334 -0.66668676 622.02849087 -1.6264846 622.04114044 C-7.96374351 621.95359873 -12.22213831 620.54713064 -17.06071472 616.38031673 C-21.69458043 611.34336946 -21.62950237 606.81449341 -21.5668726 600.30957127 C-21.57298596 599.29370914 -21.57909932 598.277847 -21.58539793 597.23120117 C-21.60105603 593.81132299 -21.58810775 590.39214808 -21.57537842 586.9722662 C-21.58070108 584.50202976 -21.58776513 582.03179656 -21.59642547 579.56156957 C-21.61120944 574.18260221 -21.61350007 568.80384333 -21.60482788 563.42487812 C-21.5919666 555.42616918 -21.60191115 547.42760191 -21.61632743 539.42890148 C-21.64127953 525.14356275 -21.64314653 510.85829024 -21.63505332 496.57293607 C-21.62798471 484.07046197 -21.62791902 471.5680136 -21.63491631 459.06553936 C-21.63582763 457.38945991 -21.63673839 455.71338045 -21.63764859 454.037301 C-21.6390317 451.51169632 -21.64042279 448.98609166 -21.64183473 446.460487 C-21.6548188 422.974429 -21.65992577 399.48837963 -21.64830112 376.00232029 C-21.64786315 375.11668484 -21.64742518 374.23104939 -21.64697394 373.3185765 C-21.643367 366.12627435 -21.63953228 358.93397233 -21.63568301 351.74167031 C-21.62083554 323.68596168 -21.62961328 295.63035039 -21.65763855 267.57465267 C-21.68905573 236.06300216 -21.7040398 204.55140929 -21.69383854 173.03974283 C-21.69280174 169.68073711 -21.69181451 166.32173138 -21.69085503 162.96272564 C-21.69060614 162.13563689 -21.69035725 161.30854814 -21.69010082 160.45639609 C-21.68665851 147.96261805 -21.6959755 135.46889085 -21.71162605 122.97512341 C-21.72938111 108.76855375 -21.72954704 94.56210795 -21.7062744 80.35554363 C-21.69375892 72.40310453 -21.69504963 64.45094988 -21.71615526 56.49852737 C-21.73035637 50.56473105 -21.71849108 44.63117496 -21.69635832 38.69739644 C-21.69145594 36.29368279 -21.69504222 33.88993419 -21.70784575 31.48624964 C-21.72396952 28.22454979 -21.70943419 24.96437501 -21.68712711 21.70274448 C-21.69911879 20.76447276 -21.71111047 19.82620103 -21.72346553 18.85949683 C-21.63526253 12.56470651 -20.32214774 8.12856172 -16.06071472 3.38031673 C-11.05150956 -0.30836787 -5.98074977 -0.04278086 0 0 Z " fill="#FDFBFB" transform="translate(224.0607147216797,201.61968326568604)"/>
<path d="M0 0 C1.01477295 -0.00465992 2.0295459 -0.00931984 3.07506955 -0.01412097 C6.49112003 -0.0261156 9.90677607 -0.01665809 13.3228302 -0.00736332 C15.79036547 -0.01153426 18.25789881 -0.01701045 20.72542858 -0.02368313 C26.09841296 -0.03515558 31.47128057 -0.03725665 36.84426498 -0.0311327 C44.83399586 -0.02205054 52.82364583 -0.03006644 60.8133705 -0.04142394 C75.08213375 -0.06110598 89.35086071 -0.06343536 103.6196343 -0.05822874 C116.10634705 -0.05367452 128.59304541 -0.05426705 141.07975769 -0.06006908 C142.75361703 -0.06082594 144.42747637 -0.06158192 146.1013357 -0.06233703 C148.62356885 -0.0634822 151.14580199 -0.06463208 153.66803513 -0.06579627 C177.12194274 -0.07650367 200.57584556 -0.081224 224.02975464 -0.07332611 C224.91415767 -0.07302894 225.7985607 -0.07273176 226.70976382 -0.07242559 C233.8921131 -0.06997656 241.07446232 -0.06736502 248.25681154 -0.06474145 C276.2789219 -0.054637 304.30097234 -0.06299722 332.32307434 -0.086236 C363.79441423 -0.11229291 395.26571805 -0.12516085 426.73706913 -0.11804825 C430.0909837 -0.11733217 433.44489828 -0.11665778 436.79881287 -0.1160078 C438.03757354 -0.11575309 438.03757354 -0.11575309 439.30135968 -0.11549323 C451.78129831 -0.11318783 464.26120351 -0.12117863 476.74113464 -0.13429928 C490.92908029 -0.14918888 505.11694743 -0.15008271 519.30489135 -0.13222837 C527.24882851 -0.12264379 535.19258274 -0.12414404 543.13650781 -0.14146306 C549.06041656 -0.15314424 554.98417219 -0.1440245 560.90807116 -0.12664068 C563.31040444 -0.12285247 565.71275967 -0.12588291 568.11507356 -0.13625234 C571.36991456 -0.14930757 574.62377292 -0.13794074 577.87857056 -0.12025452 C578.82049196 -0.12990503 579.76241337 -0.13955554 580.73287785 -0.14949849 C586.28548277 -0.08715858 589.63572313 0.53234648 593.93928528 4.38031673 C598.52456059 9.50466012 598.5066526 13.9305433 598.43985653 20.4722662 C598.44812778 21.99949074 598.44812778 21.99949074 598.45656613 23.55756831 C598.47021196 26.98521927 598.45523611 30.41215144 598.44049072 33.83978939 C598.44438174 36.31557504 598.45002058 38.79135846 598.45726162 41.26713657 C598.46896855 46.65818353 598.46819582 52.04901575 598.45648193 57.44004726 C598.43911088 65.45659253 598.44459434 73.47300838 598.45464884 81.48956031 C598.47185197 95.80619738 598.46629293 110.12275795 598.45129166 124.43939346 C598.43824826 136.96798668 598.43304229 149.49655334 598.43560982 162.02515316 C598.43585044 163.27094048 598.43585044 163.27094048 598.43609593 164.54189523 C598.43675949 167.91312829 598.4374619 171.28436134 598.43822127 174.65559439 C598.44524791 206.29088076 598.42974531 237.92612037 598.40359781 269.56139484 C598.38048215 297.67748245 598.37509429 325.79351864 598.3853302 353.90961361 C598.38793214 361.10892389 598.39051713 368.30823417 598.39292812 375.50754452 C598.39322557 376.39381937 598.39352302 377.28009421 598.39382948 378.19322588 C598.40144156 401.67549751 598.39503472 425.15776492 598.3842321 448.64003468 C598.38308428 451.1662692 598.3819411 453.69250372 598.38080528 456.21873824 C598.38005003 457.89462878 598.37928439 459.57051932 598.37850827 461.24640985 C598.37284589 473.7682024 598.37418263 486.28998165 598.3787365 498.81177425 C598.38383997 513.04729106 598.37801064 527.28275802 598.3578422 541.51826239 C598.34684076 549.4888276 598.34407661 557.45929487 598.35313073 565.4298631 C598.35895015 571.37360114 598.34915056 577.31724535 598.33313108 583.26096702 C598.3290703 585.67137333 598.33011354 588.08179449 598.33664995 590.49219537 C598.34475056 593.75778471 598.33454796 597.02281412 598.31960201 600.28836727 C598.32970849 601.70606242 598.32970849 601.70606242 598.34001914 603.15239787 C598.29385797 608.33503271 597.76027077 611.85281907 594.93928528 616.38031673 C594.27928528 616.38031673 593.61928528 616.38031673 592.93928528 616.38031673 C592.93928528 617.04031673 592.93928528 617.70031673 592.93928528 618.38031673 C587.07869346 621.39782157 582.34206089 621.80856683 575.80796146 621.76342678 C574.79769898 621.7683863 573.7874365 621.77334581 572.74656001 621.77845562 C569.35185797 621.79143771 565.95754758 621.78301852 562.56283569 621.77472591 C560.10823679 621.77961355 557.65364018 621.78580276 555.19904751 621.7931838 C549.85737601 621.80618731 544.51581939 621.80983002 539.17414284 621.80522442 C531.23087575 621.79839347 523.28769444 621.80864838 515.34443927 621.82218198 C500.33303781 621.84710044 485.32167191 621.85161061 470.31025309 621.84971601 C458.7196167 621.84834338 447.12899266 621.85215842 435.53835869 621.85964108 C433.87362967 621.86069141 432.20890066 621.86173902 430.54417164 621.86278394 C429.71781957 621.86330328 428.8914675 621.86382263 428.04007445 621.86435771 C427.21221854 621.86487785 426.38436263 621.86539799 425.53142017 621.8659339 C424.70218825 621.86645789 423.87295632 621.86698188 423.01859615 621.86752175 C399.6936518 621.88210645 376.36871198 621.89038687 353.04376316 621.88577175 C352.16432517 621.8855998 351.28488717 621.88542784 350.37879954 621.88525068 C345.9213722 621.88436177 341.46394486 621.88341696 337.00651754 621.88245267 C336.12124439 621.88226163 335.23597125 621.8820706 334.32387165 621.88187378 C332.53363453 621.88148669 330.74339742 621.88109636 328.95316031 621.8807028 C301.09197469 621.87473169 273.2308721 621.89017542 245.3697052 621.92230892 C214.07376302 621.95837322 182.77787349 621.97772036 151.48190922 621.97277021 C148.14594869 621.97230023 144.80998817 621.97188998 141.47402763 621.97151852 C140.65261798 621.97141613 139.83120833 621.97131374 138.98490748 621.97120826 C126.57749527 621.97001273 114.1701399 621.98198962 101.762743 622.0006628 C87.65501669 622.02188461 73.54740974 622.02576516 59.43967814 622.00636321 C51.54277316 621.99602511 43.64615916 621.99953715 35.74928039 622.02289407 C29.85687517 622.03877887 23.96470424 622.02860333 18.07230651 622.00817305 C15.68544378 622.00396673 13.29854828 622.00825492 10.9117201 622.02176899 C7.67276828 622.03886271 4.43534369 622.02528269 1.19645023 622.00393581 C0.26488174 622.01621334 -0.66668676 622.02849087 -1.6264846 622.04114044 C-7.96374351 621.95359873 -12.22213831 620.54713064 -17.06071472 616.38031673 C-21.69458043 611.34336946 -21.62950237 606.81449341 -21.5668726 600.30957127 C-21.57298596 599.29370914 -21.57909932 598.277847 -21.58539793 597.23120117 C-21.60105603 593.81132299 -21.58810775 590.39214808 -21.57537842 586.9722662 C-21.58070108 584.50202976 -21.58776513 582.03179656 -21.59642547 579.56156957 C-21.61120944 574.18260221 -21.61350007 568.80384333 -21.60482788 563.42487812 C-21.5919666 555.42616918 -21.60191115 547.42760191 -21.61632743 539.42890148 C-21.64127953 525.14356275 -21.64314653 510.85829024 -21.63505332 496.57293607 C-21.62798471 484.07046197 -21.62791902 471.5680136 -21.63491631 459.06553936 C-21.63582763 457.38945991 -21.63673839 455.71338045 -21.63764859 454.037301 C-21.6390317 451.51169632 -21.64042279 448.98609166 -21.64183473 446.460487 C-21.6548188 422.974429 -21.65992577 399.48837963 -21.64830112 376.00232029 C-21.64786315 375.11668484 -21.64742518 374.23104939 -21.64697394 373.3185765 C-21.643367 366.12627435 -21.63953228 358.93397233 -21.63568301 351.74167031 C-21.62083554 323.68596168 -21.62961328 295.63035039 -21.65763855 267.57465267 C-21.68905573 236.06300216 -21.7040398 204.55140929 -21.69383854 173.03974283 C-21.69280174 169.68073711 -21.69181451 166.32173138 -21.69085503 162.96272564 C-21.69060614 162.13563689 -21.69035725 161.30854814 -21.69010082 160.45639609 C-21.68665851 147.96261805 -21.6959755 135.46889085 -21.71162605 122.97512341 C-21.72938111 108.76855375 -21.72954704 94.56210795 -21.7062744 80.35554363 C-21.69375892 72.40310453 -21.69504963 64.45094988 -21.71615526 56.49852737 C-21.73035637 50.56473105 -21.71849108 44.63117496 -21.69635832 38.69739644 C-21.69145594 36.29368279 -21.69504222 33.88993419 -21.70784575 31.48624964 C-21.72396952 28.22454979 -21.70943419 24.96437501 -21.68712711 21.70274448 C-21.69911879 20.76447276 -21.71111047 19.82620103 -21.72346553 18.85949683 C-21.63526253 12.56470651 -20.32214774 8.12856172 -16.06071472 3.38031673 C-11.05150956 -0.30836787 -5.98074977 -0.04278086 0 0 Z M4.93928528 26.38031673 C4.93928528 213.82031673 4.93928528 401.26031673 4.93928528 594.38031673 C192.04928528 594.38031673 379.15928528 594.38031673 571.93928528 594.38031673 C571.93928528 406.94031673 571.93928528 219.50031673 571.93928528 26.38031673 C384.82928528 26.38031673 197.71928528 26.38031673 4.93928528 26.38031673 Z " fill="#2D2274" transform="translate(224.0607147216797,201.61968326568604)"/>
<path d="M0 0 C4.61355851 4.61355851 7.23830343 9.15594926 7.4375 15.6875 C7.19873627 32.11444432 -7.06403982 43.88635035 -17.5859375 54.984375 C-19.875 57.125 -19.875 57.125 -21.875 57.125 C-21.875 57.785 -21.875 58.445 -21.875 59.125 C-23.36238235 60.47882149 -24.91930551 61.75639886 -26.5 63 C-30.30720075 66.03704182 -34.03554622 69.11678283 -37.69042969 72.3347168 C-50.87585302 83.90158164 -65.30931244 93.8913092 -79.81201172 103.72119141 C-81.97637562 105.19398341 -84.1315307 106.67952312 -86.28515625 108.16796875 C-103.10159529 119.77400703 -120.25259736 130.84837005 -137.5168457 141.77392578 C-145.5792987 146.89598869 -153.52454925 152.18645764 -161.45874023 157.50439453 C-166.73105057 161.03655293 -172.01743487 164.53605817 -177.375 167.9375 C-182.2091069 171.0142806 -186.92601614 174.22355005 -191.625 177.5 C-198.66783163 182.39646921 -205.91049646 186.88784225 -213.25390625 191.31640625 C-217.9247204 194.13825358 -222.5249188 197.06477865 -227.125 200 C-235.8812078 205.56924243 -244.78957909 210.85934423 -253.7421875 216.10546875 C-257.35905215 218.22554038 -260.95051314 220.38062997 -264.52490234 222.57128906 C-337.14351956 266.92763663 -337.14351956 266.92763663 -366.375 259.9375 C-372.89952387 258.00430774 -377.74929146 255.5259254 -381.3125 249.5625 C-383.90008065 243.62562666 -383.98428801 236.92649262 -382.1796875 230.7421875 C-381.20169184 228.44923968 -380.08037871 226.30669791 -378.875 224.125 C-378.45089844 223.26261719 -378.02679688 222.40023437 -377.58984375 221.51171875 C-373.90002072 214.24513134 -369.22492485 208.24302758 -363.875 202.125 C-363.17503906 201.31417969 -362.47507812 200.50335937 -361.75390625 199.66796875 C-353.10293121 189.84236591 -343.95144167 180.50397265 -333.68359375 172.3671875 C-331.10471866 170.30839153 -328.59370934 168.19345626 -326.09106445 166.04394531 C-319.56182356 160.4411182 -312.83486686 155.18654307 -305.875 150.125 C-305.22966309 149.65368652 -304.58432617 149.18237305 -303.91943359 148.69677734 C-298.59242501 144.80983634 -293.23917847 140.9604365 -287.875 137.125 C-287.09624512 136.56651367 -286.31749023 136.00802734 -285.51513672 135.43261719 C-272.48482871 126.11025176 -259.11084924 117.39930045 -245.57275391 108.83447266 C-242.26673824 106.73956572 -238.9757858 104.62261802 -235.6875 102.5 C-233.4173367 101.04060931 -231.14664138 99.58208592 -228.875 98.125 C-228.05966797 97.60196289 -227.24433594 97.07892578 -226.40429688 96.54003906 C-216.09463174 89.93345236 -205.77066524 83.37534715 -195.23828125 77.12890625 C-191.97036036 75.1818175 -188.73266244 73.19246819 -185.5 71.1875 C-169.38923621 61.24891377 -153.05001822 51.55900884 -136.05712891 43.20117188 C-131.81843085 41.11286253 -127.63163338 38.94780664 -123.46582031 36.71777344 C-95.23148279 21.62638085 -65.21658289 5.82875762 -34.4375 -3.3125 C-33.51606201 -3.58892334 -32.59462402 -3.86534668 -31.64526367 -4.15014648 C-20.04451955 -7.31652021 -10.16180624 -6.62726494 0 0 Z " fill="#379E74" transform="translate(692.875,361.875)"/>
<path d="M0 0 C1.39798828 -0.03383789 1.39798828 -0.03383789 2.82421875 -0.06835938 C10.54892366 -0.04069209 15.88422041 1.75881061 21.5 7.125 C24.97523284 12.38749545 27.35651627 17.39925721 26.3125 23.8125 C21.47064706 40.03549003 5.35370762 53.60569236 -7.71484375 63.46875 C-10.51778997 65.59308819 -13.22354387 67.81426828 -15.93652344 70.05151367 C-23.54208798 76.31179674 -31.32217588 82.25675401 -39.3203125 88.00439453 C-41.43671 89.52685204 -43.54688193 91.05766363 -45.65625 92.58984375 C-50.19850655 95.88612553 -54.75316868 99.16488849 -59.3125 102.4375 C-60.28050537 103.13383545 -60.28050537 103.13383545 -61.26806641 103.84423828 C-71.36901188 111.09599695 -81.64271462 118.09027271 -91.9375 125.0625 C-92.58641205 125.50198975 -93.2353241 125.94147949 -93.90390015 126.39428711 C-101.64903446 131.63662747 -109.41057944 136.85332779 -117.20657349 142.01980591 C-121.05763459 144.57783845 -124.85128072 147.20407688 -128.625 149.875 C-134.40543226 153.90078452 -140.35953832 157.57462147 -146.38696289 161.21728516 C-151.50113574 164.31331148 -156.55335559 167.48692749 -161.5625 170.75 C-176.34582935 180.37368481 -191.21447324 189.85354386 -206.30078125 198.99609375 C-209.74582867 201.08446678 -213.15392805 203.22755558 -216.5625 205.375 C-236.3414555 217.53133537 -257.0483191 228.66853658 -279.3125 235.4375 C-280.90964844 235.97697266 -280.90964844 235.97697266 -282.5390625 236.52734375 C-292.9791713 239.95346396 -305.18542562 239.69861873 -315.3125 235.4375 C-320.67362436 232.65383927 -324.60539965 228.84255509 -327.3125 223.4375 C-329.63259205 214.9443059 -325.66066527 207.61998112 -321.640625 200.3515625 C-314.40728891 187.91287223 -304.05348178 175.09231509 -293.3125 165.4375 C-292.6525 165.4375 -291.9925 165.4375 -291.3125 165.4375 C-291.11527344 164.90511719 -290.91804688 164.37273437 -290.71484375 163.82421875 C-288.6722029 160.34774644 -285.84577023 157.94312081 -282.875 155.25 C-281.92729736 154.38181641 -281.92729736 154.38181641 -280.96044922 153.49609375 C-275.57475175 148.59876845 -269.9968399 143.98346414 -264.3125 139.4375 C-263.12091891 138.45621778 -261.93091404 137.47301955 -260.7421875 136.48828125 C-250.55091013 128.0703532 -240.04558668 120.15032642 -229.3125 112.4375 C-228.47074219 111.83196289 -227.62898438 111.22642578 -226.76171875 110.60253906 C-217.97202337 104.30370197 -209.1618709 98.14905496 -199.81884766 92.69580078 C-195.09486431 89.93748465 -190.51105496 87.00032278 -185.9375 84 C-177.55736084 78.52536963 -168.99441346 73.41701625 -160.3125 68.4375 C-159.38099121 67.90141113 -159.38099121 67.90141113 -158.43066406 67.35449219 C-148.39555936 61.59488858 -138.20645438 56.12259684 -128.00561523 50.66333008 C-122.46486925 47.69388717 -116.95708328 44.68625748 -111.50537109 41.55664062 C-84.21847573 25.96412899 -54.1202449 13.3326148 -24.3125 3.4375 C-23.16394531 3.0559375 -22.01539063 2.674375 -20.83203125 2.28125 C-13.95459426 0.35948236 -7.10049975 0.11678454 0 0 Z " fill="#379E75" transform="translate(621.3125,270.5625)"/>
<path d="M0 0 C3.21247709 2.74235849 4.25028329 5.13188961 5 9.1875 C6.02779507 24.73290042 -9.46905882 40.1004342 -19 51 C-20.64513308 52.68792556 -22.30763104 54.35943825 -24 56 C-24.53882813 56.56203125 -25.07765625 57.1240625 -25.6328125 57.703125 C-29.85633808 62.08143948 -34.44157303 65.87112138 -39.1796875 69.6796875 C-41.84953927 71.87621375 -44.39727977 74.15580962 -46.9375 76.5 C-51.80325001 80.91648671 -56.92654251 84.85982688 -62.24072266 88.72070312 C-64.12804281 90.09310912 -66.00722502 91.47627333 -67.88671875 92.859375 C-79.67765981 101.49310402 -91.75270674 109.69362063 -103.86035156 117.87451172 C-107.85595841 120.5794692 -111.84040132 123.30055842 -115.82397461 126.02319336 C-124.41526321 131.89474343 -133.03315859 137.72127599 -141.70458984 143.47363281 C-144.51070609 145.33960163 -147.31198374 147.21274235 -150.11328125 149.0859375 C-156.51058058 153.36316633 -162.91473944 157.62999568 -169.32513428 161.88757324 C-170.9222831 162.94838132 -172.51901363 164.00981912 -174.11572266 165.07128906 C-193.27457331 177.78078176 -213.0220883 189.30581729 -232.94921875 200.7590332 C-238.28437162 203.83130948 -243.59026699 206.92698664 -248.8125 210.1875 C-303.37098243 244.18448633 -303.37098243 244.18448633 -330.3125 238.25 C-338.21963518 235.56961519 -343.12030243 232.07375285 -347.3125 224.6875 C-349.55146843 215.93516888 -347.29253648 210.12937348 -343.04296875 202.41015625 C-340.10935161 197.51331541 -336.7423961 193.29539621 -333 189 C-332.11457307 187.92402111 -331.23192339 186.84575283 -330.3515625 185.765625 C-319.89263489 173.06447769 -307.88368152 162.20177231 -295 152 C-293.80254938 151.03489055 -292.60599003 150.06867459 -291.41015625 149.1015625 C-284.72952501 143.70948539 -277.97866721 138.45071169 -271.08203125 133.3359375 C-267.56000958 130.66652184 -264.12387018 127.90309728 -260.6875 125.125 C-250.54368106 116.94957892 -240.09684725 109.28140267 -229.1953125 102.14453125 C-226.82241204 100.55196113 -224.49551714 98.9334977 -222.1796875 97.26171875 C-213.88305832 91.27513142 -205.46074424 85.75246677 -196.64111328 80.56469727 C-190.76990934 77.10033966 -185.05565969 73.45475869 -179.375 69.6875 C-168.5121551 62.51789225 -157.23238277 56.11472966 -145.92480469 49.67919922 C-142.72748255 47.84354132 -139.5636421 45.95826836 -136.4050293 44.05712891 C-126.8300524 38.30430124 -116.93730909 33.2000599 -107.00390625 28.09765625 C-102.7811234 25.92852244 -98.58955496 23.7128267 -94.41821289 21.44677734 C-25.35358602 -15.92456642 -25.35358602 -15.92456642 0 0 Z " fill="#389E74" transform="translate(710,466)"/>
<path d="M0 0 C3.40565526 3.48872002 4.80446985 6.12291052 5.3125 11 C4.87721264 28.3389464 -10.71526138 42.46796358 -22 54 C-22.66547852 54.68594238 -23.33095703 55.37188477 -24.01660156 56.07861328 C-31.22432172 63.4936882 -38.43347735 70.67191097 -46.5703125 77.0703125 C-48.90596598 78.92531703 -51.10935737 80.86554024 -53.3125 82.875 C-62.90505855 91.46408168 -73.22916786 98.99104539 -83.88671875 106.19140625 C-86.63218819 108.05056865 -89.33807891 109.95201888 -92.01953125 111.90234375 C-102.4257608 119.45611695 -113.24057331 126.05539518 -124.37548828 132.47900391 C-127.5410952 134.31358354 -130.68410264 136.18442701 -133.82666016 138.05810547 C-189.80880404 171.32623585 -189.80880404 171.32623585 -217 172 C-217.96550781 172.03867187 -218.93101562 172.07734375 -219.92578125 172.1171875 C-228.75082194 172.31500908 -235.85579277 171.71536578 -243 166 C-247.8854653 160.88730375 -250.65055698 156.1449872 -251.4375 149.0625 C-250.96869953 139.66845975 -244.17182521 133.42633347 -238 127 C-237.45601563 126.40445313 -236.91203125 125.80890625 -236.3515625 125.1953125 C-231.08156346 119.60429829 -224.88305022 115.05475964 -218.80664062 110.38769531 C-217.12246065 109.09406302 -215.44322041 107.79434078 -213.765625 106.4921875 C-210.52033578 103.98152843 -207.26372485 101.48660427 -204 99 C-203.36271973 98.51354004 -202.72543945 98.02708008 -202.06884766 97.52587891 C-192.38522546 90.14776947 -182.53185545 83.21446622 -172.30004883 76.61132812 C-162.78123383 70.4675035 -153.30350375 64.26410393 -143.84606934 58.02630615 C-124.60256939 45.34378735 -105.38302077 32.8984609 -85.18945312 21.76220703 C-82.38786606 20.21430016 -79.59440962 18.65256063 -76.80212402 17.08796692 C-62.97846608 9.36464153 -49.30643933 2.32448251 -34 -2 C-32.77023437 -2.35449219 -31.54046875 -2.70898438 -30.2734375 -3.07421875 C-19.13307083 -5.95714736 -9.84534478 -6.71606233 0 0 Z " fill="#389E75" transform="translate(695,574)"/>
<path d="M0 0 C4.61355851 4.61355851 7.23830343 9.15594926 7.4375 15.6875 C7.19873627 32.11444432 -7.06403982 43.88635035 -17.5859375 54.984375 C-19.875 57.125 -19.875 57.125 -21.875 57.125 C-21.875 57.785 -21.875 58.445 -21.875 59.125 C-23.36238235 60.47882149 -24.91930551 61.75639886 -26.5 63 C-30.30720075 66.03704182 -34.03554622 69.11678283 -37.69042969 72.3347168 C-50.87585302 83.90158164 -65.30931244 93.8913092 -79.81201172 103.72119141 C-81.97637562 105.19398341 -84.1315307 106.67952312 -86.28515625 108.16796875 C-98.66868517 116.71440337 -111.22913117 124.97264514 -123.875 133.125 C-124.71450195 133.66979004 -125.55400391 134.21458008 -126.41894531 134.77587891 C-128.66963234 136.23438634 -130.9269636 137.68182088 -133.1875 139.125 C-133.84516357 139.55256592 -134.50282715 139.98013184 -135.18041992 140.4206543 C-136.7073021 141.38503349 -138.28679459 142.2653489 -139.875 143.125 C-140.535 142.795 -141.195 142.465 -141.875 142.125 C-141.545 140.475 -141.215 138.825 -140.875 137.125 C-139.555 137.785 -138.235 138.445 -136.875 139.125 C-136.215 138.135 -135.555 137.145 -134.875 136.125 C-132.75 135.4375 -132.75 135.4375 -130.875 135.125 C-131.49375 134.67125 -132.1125 134.2175 -132.75 133.75 C-134.875 132.125 -134.875 132.125 -136.875 130.125 C-135.555 127.155 -134.235 124.185 -132.875 121.125 C-134.195 120.795 -135.515 120.465 -136.875 120.125 C-137.535 119.135 -138.195 118.145 -138.875 117.125 C-139.535 117.785 -140.195 118.445 -140.875 119.125 C-140.875 118.465 -140.875 117.805 -140.875 117.125 C-143.845 117.62 -143.845 117.62 -146.875 118.125 C-146.875 117.465 -146.875 116.805 -146.875 116.125 C-146.215 116.125 -145.555 116.125 -144.875 116.125 C-145.205 113.815 -145.535 111.505 -145.875 109.125 C-149.55905881 109.76942765 -152.05722476 111.38013254 -155.14453125 113.44921875 C-156.18697998 114.14136475 -157.22942871 114.83351074 -158.3034668 115.54663086 C-158.85481293 115.91593719 -159.40615906 116.28524353 -159.97421265 116.66574097 C-162.89284847 118.61927899 -165.82429347 120.55328004 -168.7578125 122.484375 C-169.35411972 122.87697006 -169.95042694 123.26956512 -170.56480408 123.67405701 C-176.31382567 127.44227451 -182.1708285 131.0219464 -188.0625 134.5625 C-194.97731969 138.72168451 -201.77846014 142.97687905 -208.45239258 147.51171875 C-213.87563353 151.17779658 -219.45149336 154.56898931 -225.05297852 157.9543457 C-230.14379688 161.04019811 -235.14943454 164.23221743 -240.125 167.5 C-248.37079615 172.8959112 -256.83333129 177.89291819 -265.3359375 182.87109375 C-269.70280277 185.42817816 -274.04224222 188.02690894 -278.37109375 190.64770508 C-290.06564378 197.7240773 -301.92770851 204.48537726 -313.875 211.125 C-314.64344238 211.55393555 -315.41188477 211.98287109 -316.20361328 212.42480469 C-323.24698285 216.34188701 -330.07967394 219.9368383 -337.875 222.125 C-332.41585907 214.61868122 -324.63040466 209.03309568 -317.5 203.1875 C-316.37658203 202.26529663 -316.37658203 202.26529663 -315.23046875 201.32446289 C-298.20049656 187.36217308 -280.68396894 174.07663162 -262.875 161.125 C-262.1850293 160.62145996 -261.49505859 160.11791992 -260.78417969 159.59912109 C-243.09000699 146.73024124 -224.47958599 135.19337066 -205.74951172 123.90478516 C-199.39503047 120.07428558 -193.11882829 116.13331878 -186.875 112.125 C-187.82375 112.640625 -188.7725 113.15625 -189.75 113.6875 C-190.78125 114.161875 -191.8125 114.63625 -192.875 115.125 C-193.535 114.795 -194.195 114.465 -194.875 114.125 C-194.875 112.125 -194.875 110.125 -194.875 108.125 C-194.215 108.125 -193.555 108.125 -192.875 108.125 C-192.545 107.135 -192.215 106.145 -191.875 105.125 C-191.215 105.125 -190.555 105.125 -189.875 105.125 C-189.545 106.775 -189.215 108.425 -188.875 110.125 C-188.875 108.145 -188.875 106.165 -188.875 104.125 C-190.195 103.795 -191.515 103.465 -192.875 103.125 C-191.7655928 99.63829166 -190.61162334 96.35015763 -188.875 93.125 C-187.885 93.125 -186.895 93.125 -185.875 93.125 C-185.875 92.135 -185.875 91.145 -185.875 90.125 C-184.56299596 88.77067325 -183.22868596 87.43766518 -181.875 86.125 C-181.545 85.135 -181.215 84.145 -180.875 83.125 C-181.865 82.795 -182.855 82.465 -183.875 82.125 C-182.885 81.795 -181.895 81.465 -180.875 81.125 C-181.205 80.135 -181.535 79.145 -181.875 78.125 C-182.10141509 72.57783019 -182.10141509 72.57783019 -180.875 70.125 C-181.535 69.795 -182.195 69.465 -182.875 69.125 C-181.96363281 68.61453125 -181.05226563 68.1040625 -180.11328125 67.578125 C-178.80461023 66.8438877 -177.49602422 66.10949889 -176.1875 65.375 C-175.12402344 64.77860718 -175.12402344 64.77860718 -174.0390625 64.17016602 C-169.91135357 61.85010587 -165.7974877 59.50843406 -161.69921875 57.13671875 C-152.53648874 51.84029419 -143.35723498 46.73873584 -133.84765625 42.09375 C-130.34900462 40.37870767 -126.91136524 38.56380524 -123.47680664 36.72436523 C-95.24470303 21.62529308 -65.21786122 5.82913728 -34.4375 -3.3125 C-33.51606201 -3.58892334 -32.59462402 -3.86534668 -31.64526367 -4.15014648 C-20.04451955 -7.31652021 -10.16180624 -6.62726494 0 0 Z " fill="#379E74" transform="translate(692.875,361.875)"/>
<path d="M0 0 C-8.29494417 7.85437021 -16.87342836 15.12970001 -26 22 C-26.6089209 22.46003418 -27.2178418 22.92006836 -27.84521484 23.39404297 C-48.72028574 39.05710445 -70.88282048 53.10287561 -92.7890625 67.265625 C-96.71682771 69.80827065 -100.61306623 72.39549351 -104.5 75 C-118.40880345 84.30021484 -132.44430657 93.32982463 -146.7722168 101.97290039 C-152.81504369 105.63092588 -158.73422867 109.41633072 -164.57592773 113.38574219 C-169.99967807 117.05212234 -175.57598614 120.44368276 -181.17797852 123.8293457 C-186.26879688 126.91519811 -191.27443454 130.10721743 -196.25 133.375 C-204.49579615 138.7709112 -212.95833129 143.76791819 -221.4609375 148.74609375 C-225.82780277 151.30317816 -230.16724222 153.90190894 -234.49609375 156.52270508 C-246.19064378 163.5990773 -258.05270851 170.36037726 -270 177 C-270.76844238 177.42893555 -271.53688477 177.85787109 -272.32861328 178.29980469 C-279.37198285 182.21688701 -286.20467394 185.8118383 -294 188 C-288.54085907 180.49368122 -280.75540466 174.90809568 -273.625 169.0625 C-272.50158203 168.14029663 -272.50158203 168.14029663 -271.35546875 167.19946289 C-254.32549656 153.23717308 -236.80896894 139.95163162 -219 127 C-218.3100293 126.49645996 -217.62005859 125.99291992 -216.90917969 125.47412109 C-199.29144251 112.6608324 -180.76008697 101.20315027 -162.12060547 89.94897461 C-156.34853385 86.45672575 -150.64642001 82.87921505 -145 79.1875 C-132.36625605 70.94143513 -119.33156285 63.44315476 -106.24707031 55.93725586 C-99.59035366 52.10778782 -92.99066112 48.19934111 -86.4296875 44.20825195 C-74.72974589 37.09280344 -62.84238496 30.55819804 -50.64013672 24.34814453 C-46.6393113 22.30518559 -42.6623337 20.21796231 -38.6875 18.125 C-37.94838379 17.73812012 -37.20926758 17.35124023 -36.44775391 16.95263672 C-32.25480352 14.74941094 -28.08677347 12.50595843 -23.93867493 10.21923828 C-21.55261021 8.90425547 -19.16279408 7.59615675 -16.77310181 6.28778076 C-15.02522395 5.32637424 -13.28342928 4.35393492 -11.54174805 3.38134766 C-10.47609619 2.79788574 -9.41044434 2.21442383 -8.3125 1.61328125 C-7.35988281 1.08516846 -6.40726563 0.55705566 -5.42578125 0.01293945 C-3 -1 -3 -1 0 0 Z " fill="#FAFBFA" transform="translate(649,396)"/>
<path d="M0 0 C0.99 0.495 0.99 0.495 2 1 C-5.8673385 6.79026831 -13.75482572 12.5495128 -21.6875 18.25 C-28.17322869 22.91159567 -34.56947607 27.67918468 -40.9375 32.5 C-49.67625778 39.09837824 -58.62173117 45.33091225 -67.70263672 51.44677734 C-69.89434852 52.92857017 -72.07609547 54.42365152 -74.25390625 55.92578125 C-97.19151271 71.74276135 -120.38386501 87.21402075 -144 102 C-145.44246094 102.90540527 -145.44246094 102.90540527 -146.9140625 103.82910156 C-153.93342887 108.23434344 -160.96352761 112.62214143 -168 117 C-168.94359375 117.5873291 -169.8871875 118.1746582 -170.859375 118.77978516 C-176.89680343 122.53525958 -182.94256642 126.27687534 -189 130 C-189.63035156 130.38784668 -190.26070313 130.77569336 -190.91015625 131.17529297 C-199.27388654 136.30439267 -207.7654748 141.21887446 -216.26657104 146.11581421 C-217.48254319 146.81701942 -218.69753097 147.51993513 -219.91140747 148.22476196 C-228.09755054 152.9727791 -236.34226313 157.18610991 -245 161 C-243.67789665 158.04416893 -242.27958084 156.06129621 -239.91015625 153.86328125 C-238.98964478 153.00452393 -238.98964478 153.00452393 -238.05053711 152.12841797 C-237.39448486 151.52916504 -236.73843262 150.92991211 -236.0625 150.3125 C-235.38517822 149.68746582 -234.70785645 149.06243164 -234.01000977 148.41845703 C-229.40602305 144.20153838 -224.68590242 140.17238559 -219.80859375 136.2734375 C-216.48133562 133.58016319 -213.24046948 130.79652166 -210 128 C-204.07681254 122.90285706 -198.10445356 117.88008947 -192 113 C-190.56333984 111.85144531 -190.56333984 111.85144531 -189.09765625 110.6796875 C-175.39967373 99.9354944 -160.76918072 90.45530016 -146.26953125 80.83984375 C-143.54821381 79.03439544 -140.83707948 77.21554099 -138.13671875 75.37890625 C-123.40253504 65.38209132 -107.89150522 56.75875697 -92.37890625 48.0390625 C-89.26732581 46.28768568 -86.16594826 44.52389143 -83.08984375 42.7109375 C-76.03538295 38.56902016 -68.8554467 34.99100652 -61.43945312 31.56103516 C-55.5661314 28.81650318 -49.89859804 25.80370435 -44.25 22.625 C-36.03873306 18.00946351 -27.66667065 13.85493972 -19.12792969 9.87939453 C-13.33323827 7.17098359 -7.75123727 4.24368324 -2.21704102 1.0324707 C-1.48541748 0.69175537 -0.75379395 0.35104004 0 0 Z " fill="#FAFBFA" transform="translate(583,313)"/>
<path d="M0 0 C0 0.99 0 1.98 0 3 C-2.1328125 5.12890625 -2.1328125 5.12890625 -5.125 7.5625 C-5.66560059 8.00231201 -6.20620117 8.44212402 -6.76318359 8.89526367 C-12.34616885 13.38099173 -18.17530028 17.5029003 -24.03710938 21.61230469 C-26.90413409 23.63919131 -29.74145854 25.70627312 -32.58129883 27.77099609 C-48.50920252 39.3435209 -64.85098522 50.27107765 -81.24333191 61.17076111 C-88.20350753 65.79906834 -95.15745881 70.43670333 -102.11160278 75.07406616 C-104.18035456 76.45355878 -106.24920872 77.83289766 -108.31811523 79.2121582 C-108.97325104 79.6489389 -109.62838684 80.0857196 -110.30337524 80.53573608 C-111.60669635 81.40451547 -112.91014189 82.2731082 -114.2137146 83.14151001 C-117.44661747 85.29553851 -120.67711622 87.45301651 -123.90307617 89.61743164 C-131.46322427 94.68481384 -139.07788436 99.63846889 -146.8125 104.4375 C-147.84600586 105.08090332 -148.87951172 105.72430664 -149.94433594 106.38720703 C-158.0606297 111.43318403 -166.20037493 116.43954644 -174.36865234 121.40087891 C-176.89833726 122.93821758 -179.4264617 124.47810135 -181.95426941 126.01852417 C-204.2382518 139.5954822 -204.2382518 139.5954822 -214.1875 145.375 C-219.83558185 148.65744402 -225.34362287 152.11467797 -230.8125 155.6875 C-246.23190377 165.75421829 -246.23190377 165.75421829 -251 168 C-251.66 167.67 -252.32 167.34 -253 167 C-246.08216662 160.50009614 -239.12903411 154.1417281 -231.72265625 148.1953125 C-228.90301395 145.92179891 -226.13982935 143.58976035 -223.375 141.25 C-217.73543431 136.53193197 -211.92490472 132.06265962 -206.05029297 127.64160156 C-202.78677006 125.17644461 -199.59204461 122.68396428 -196.51171875 119.9921875 C-192.72391946 116.70209054 -188.70836301 113.78522978 -184.625 110.875 C-183.83391846 110.30861816 -183.04283691 109.74223633 -182.2277832 109.15869141 C-180.59679644 107.99228481 -178.96471846 106.82740252 -177.33154297 105.6640625 C-175.23729921 104.16936455 -173.15071468 102.66475025 -171.06640625 101.15625 C-143.48998173 81.31382271 -114.50545806 62.82803425 -84.828125 46.29736328 C-80.75965984 44.02119528 -76.76774915 41.65761689 -72.8125 39.1875 C-57.16197756 29.46608077 -40.96690315 20.78971487 -24.59863281 12.35009766 C-19.75295562 9.83256714 -14.95448773 7.22761308 -10.15625 4.62109375 C-6.82046908 2.90779043 -3.46180426 1.43804748 0 0 Z " fill="#FAFBFA" transform="translate(665,498)"/>
<path d="M0 0 C0.99 0.495 0.99 0.495 2 1 C-3.56255869 6.1128199 -9.19911497 11.05404693 -15.13671875 15.7265625 C-17.28341893 17.43103659 -19.40697521 19.15257011 -21.51953125 20.8984375 C-46.31494096 41.35772745 -72.87666295 59.40877565 -101.0625 74.875 C-101.68575165 75.21806183 -102.3090033 75.56112366 -102.95114136 75.9145813 C-111.08752749 80.38892551 -119.26306347 84.77098758 -127.5625 88.9375 C-128.77401733 89.54730713 -128.77401733 89.54730713 -130.01000977 90.16943359 C-133.33751306 91.81236798 -136.36221586 93.19177117 -140 94 C-136.01662364 89.7515849 -131.68147907 86.42460705 -126.9375 83.0625 C-126.15528076 82.50328857 -125.37306152 81.94407715 -124.56713867 81.36791992 C-122.04931002 79.5721065 -119.52557214 77.78490416 -117 76 C-116.15791992 75.40380859 -115.31583984 74.80761719 -114.44824219 74.19335938 C-95.66130542 60.91082959 -76.4969151 48.24547821 -57.05859375 35.9375 C-54.567934 34.35976406 -52.08207782 32.77501659 -49.59765625 31.1875 C-42.5206944 26.67793758 -35.46627841 22.19376574 -28.125 18.125 C-18.38307144 12.67415902 -9.22878098 6.26701073 0 0 Z " fill="#F7FAF8" transform="translate(645,610)"/>
<path d="M0 0 C0.66 0.33 1.32 0.66 2 1 C-0.56408417 2.40279555 -3.1298023 3.80229554 -5.69921875 5.1953125 C-7.98404407 6.4445306 -10.25513015 7.70734122 -12.51953125 8.9921875 C-13.66808594 9.63414062 -14.81664062 10.27609375 -16 10.9375 C-17.0725 11.54464844 -18.145 12.15179688 -19.25 12.77734375 C-22 14 -22 14 -25 13 C-20.25 10 -20.25 10 -18 10 C-17.67 8.35 -17.34 6.7 -17 5 C-17.66 4.67 -18.32 4.34 -19 4 C-18.01 3.67 -17.02 3.34 -16 3 C-15.01 3.99 -14.02 4.98 -13 6 C-12.08476563 5.55527344 -11.16953125 5.11054688 -10.2265625 4.65234375 C-9.03804687 4.08644531 -7.84953125 3.52054687 -6.625 2.9375 C-5.44164062 2.36902344 -4.25828125 1.80054688 -3.0390625 1.21484375 C-2.03617188 0.81394531 -1.03328125 0.41304688 0 0 Z " fill="#279668" transform="translate(535,336)"/>
<path d="M0 0 C1.32 0.33 2.64 0.66 4 1 C4 1.66 4 2.32 4 3 C5.98 3 7.96 3 10 3 C7.83385197 5.30874711 5.60793392 7.05290181 2.9375 8.75 C2.24527344 9.19859375 1.55304687 9.6471875 0.83984375 10.109375 C0.23269531 10.40328125 -0.37445312 10.6971875 -1 11 C-1.66 10.67 -2.32 10.34 -3 10 C-2.690625 9.0925 -2.38125 8.185 -2.0625 7.25 C-1.2727737 4.83436662 -0.57050703 2.47219715 0 0 Z " fill="#2F9A6E" transform="translate(603,627)"/>
<path d="M0 0 C-1.625 6.75 -1.625 6.75 -5 9 C-5.639375 8.79375 -6.27875 8.5875 -6.9375 8.375 C-7.618125 8.25125 -8.29875 8.1275 -9 8 C-11.27144074 9.85432087 -11.27144074 9.85432087 -13 12 C-13.66 11.67 -14.32 11.34 -15 11 C-13.39801112 9.53927468 -11.79332884 8.08150284 -10.1875 6.625 C-9.29417969 5.81289063 -8.40085937 5.00078125 -7.48046875 4.1640625 C-2.70758123 0 -2.70758123 0 0 0 Z " fill="#2C986C" transform="translate(363,407)"/>
<path d="M0 0 C0.99 0.33 1.98 0.66 3 1 C2.67 2.32 2.34 3.64 2 5 C-1.33333333 5.66666667 -4.66666667 6.33333333 -8 7 C-8.33 8.32 -8.66 9.64 -9 11 C-10.98 11.33 -12.96 11.66 -15 12 C-10.68074087 7.24881495 -5.6487497 3.08287695 0 0 Z " fill="#2C986C" transform="translate(536,349)"/>
<path d="M0 0 C1.485 0.99 1.485 0.99 3 2 C3.33 1.34 3.66 0.68 4 0 C4.66 0 5.32 0 6 0 C6.33 1.32 6.66 2.64 7 4 C6.01 4.66 5.02 5.32 4 6 C4.928125 6.763125 5.85625 7.52625 6.8125 8.3125 C8.98276101 10.11848552 11.05568065 11.9476629 13 14 C9.73829163 13.40369649 7.86775002 12.35630233 5.375 10.1875 C4.78460938 9.68605469 4.19421875 9.18460938 3.5859375 8.66796875 C0.93642513 5.88141263 0 3.8532561 0 0 Z " fill="#259466" transform="translate(363,688)"/>
<path d="M0 0 C0.33 0.66 0.66 1.32 1 2 C-0.65 3.32 -2.3 4.64 -4 6 C-4.66 5.34 -5.32 4.68 -6 4 C-4.02 2.68 -2.04 1.36 0 0 Z M-6 6 C-5.34 6.33 -4.68 6.66 -4 7 C-4.33 8.65 -4.66 10.3 -5 12 C-6.65 11.67 -8.3 11.34 -10 11 C-9 8 -9 8 -6 6 Z " fill="#2E996E" transform="translate(431,655)"/>
<path d="M0 0 C-3.3 2.97 -6.6 5.94 -10 9 C-10.33 8.01 -10.66 7.02 -11 6 C-8.04900634 1.51886149 -5.477195 -1.82573167 0 0 Z " fill="#E8F3EF" transform="translate(649,396)"/>
<path d="M0 0 C0.66 0.33 1.32 0.66 2 1 C-8.37357631 8.66742597 -8.37357631 8.66742597 -14 10 C-13 9 -12 8 -11 7 C-10.21625 6.13375 -9.4325 5.2675 -8.625 4.375 C-5.87963219 1.89109579 -4.58531555 1.39836839 -1 1 C-0.67 0.67 -0.34 0.34 0 0 Z " fill="#279466" transform="translate(585,695)"/>
<path d="M0 0 C0.33 0.99 0.66 1.98 1 3 C-2.3 5.97 -5.6 8.94 -9 12 C-9.66 11.67 -10.32 11.34 -11 11 C-7.37 7.37 -3.74 3.74 0 0 Z " fill="#1F9162" transform="translate(346,546)"/>
<path d="M0 0 C0.66 0.33 1.32 0.66 2 1 C1.21625 1.763125 0.4325 2.52625 -0.375 3.3125 C-3.07257717 5.90891805 -3.07257717 5.90891805 -5 9 C-6.32 9 -7.64 9 -9 9 C-9 8.01 -9 7.02 -9 6 C-7.03125 4.39453125 -7.03125 4.39453125 -4.5 2.8125 C-3.6646875 2.28269531 -2.829375 1.75289062 -1.96875 1.20703125 C-0.99421875 0.60955078 -0.99421875 0.60955078 0 0 Z " fill="#289669" transform="translate(545,636)"/>
<path d="M0 0 C0.66 0.33 1.32 0.66 2 1 C1.01 2.485 1.01 2.485 0 4 C0.66 4.33 1.32 4.66 2 5 C0.73160474 5.50615298 -0.53983102 6.00469099 -1.8125 6.5 C-2.87404297 6.91765625 -2.87404297 6.91765625 -3.95703125 7.34375 C-6 8 -6 8 -9 8 C-6.03 5.36 -3.06 2.72 0 0 Z " fill="#289468" transform="translate(646,611)"/>
<path d="M0 0 C0 0.99 0 1.98 0 3 C-1.53125 4.38671875 -1.53125 4.38671875 -3.5 5.6875 C-4.47453125 6.34298828 -4.47453125 6.34298828 -5.46875 7.01171875 C-5.9740625 7.33785156 -6.479375 7.66398437 -7 8 C-7.33 7.01 -7.66 6.02 -8 5 C-6.37633534 1.75267068 -3.24612161 1.29844864 0 0 Z " fill="#EEF7F4" transform="translate(665,498)"/>
<path d="M0 0 C0.66 1.32 1.32 2.64 2 4 C-2.455 5.485 -2.455 5.485 -7 7 C-4.78071806 4.09197539 -3.07030857 2.04687238 0 0 Z " fill="#F0F7F4" transform="translate(362,577)"/>
<path d="M0 0 C2.64 0.33 5.28 0.66 8 1 C6.37660195 2.70884005 4.70680947 4.37446717 3 6 C2.34 6 1.68 6 1 6 C0.67 4.02 0.34 2.04 0 0 Z " fill="#2E996D" transform="translate(476,605)"/>
<path d="M0 0 C0.8353125 0.556875 0.8353125 0.556875 1.6875 1.125 C4.05716353 2.29515863 4.05716353 2.29515863 6.75 1.125 C7.4925 0.75375 8.235 0.3825 9 0 C5.98112756 3.48331435 3.43090471 4.79157144 -1 6 C-1.042721 4.33388095 -1.04063832 2.66617115 -1 1 C-0.67 0.67 -0.34 0.34 0 0 Z " fill="#299669" transform="translate(552,499)"/>
<path d="M0 0 C0.556875 0.185625 1.11375 0.37125 1.6875 0.5625 C4.399133 1.07551165 6.34371039 0.6640724 9 0 C6.15314251 2.31966166 3.5236125 3.91581154 0 5 C-0.99 4.67 -1.98 4.34 -3 4 C-2.34 3.67 -1.68 3.34 -1 3 C-0.67 2.01 -0.34 1.02 0 0 Z " fill="#259668" transform="translate(513,731)"/>
<path d="M0 0 C0.33 0.66 0.66 1.32 1 2 C-0.32 2.33 -1.64 2.66 -3 3 C-2.67 4.32 -2.34 5.64 -2 7 C-3.32 7.33 -4.64 7.66 -6 8 C-6 7.34 -6 6.68 -6 6 C-6.66 5.34 -7.32 4.68 -8 4 C-5.36 2.68 -2.72 1.36 0 0 Z " fill="#2B996D" transform="translate(418,663)"/>
<path d="M0 0 C2 1 2 1 5 3 C3.02 4.32 1.04 5.64 -1 7 C-1.66 6.67 -2.32 6.34 -3 6 C-2.01 4.02 -1.02 2.04 0 0 Z " fill="#2C996C" transform="translate(479,423)"/>
<path d="M0 0 C0.66 0.33 1.32 0.66 2 1 C-1.75 4 -1.75 4 -4 4 C-4.66 5.32 -5.32 6.64 -6 8 C-6.99 7.34 -7.98 6.68 -9 6 C-6.03 4.02 -3.06 2.04 0 0 Z " fill="#279668" transform="translate(562,625)"/>
<path d="M0 0 C0.66 0.33 1.32 0.66 2 1 C0.73058503 4.91402949 -0.51167694 6.79072873 -4 9 C-3.7525 8.1028125 -3.7525 8.1028125 -3.5 7.1875 C-2.8885876 4.88655664 -2.8885876 4.88655664 -3 2 C-2.67 2.33 -2.34 2.66 -2 3 C-1.34 2.01 -0.68 1.02 0 0 Z " fill="#2A966A" transform="translate(702,498)"/>
<path d="M0 0 C1.32 0 2.64 0 4 0 C4.36666667 5.5 4.36666667 5.5 2.625 7.875 C1 9 1 9 -1 9 C-0.33333333 7 0.33333333 5 1 3 C0.67 2.01 0.34 1.02 0 0 Z " fill="#2E986E" transform="translate(434,637)"/>
<path d="M0 0 C0.66 0.33 1.32 0.66 2 1 C1 4 1 4 -1.9375 5.6875 C-5 7 -5 7 -7 7 C-7 6.34 -7 5.68 -7 5 C-5.46875 3.7109375 -5.46875 3.7109375 -3.5 2.375 C-2.8503125 1.92898438 -2.200625 1.48296875 -1.53125 1.0234375 C-1.0259375 0.68570313 -0.520625 0.34796875 0 0 Z " fill="#29976A" transform="translate(451,590)"/>
<path d="M0 0 C-3.465 2.97 -3.465 2.97 -7 6 C-7.66 5.67 -8.32 5.34 -9 5 C-8.3125 2.5625 -8.3125 2.5625 -7 0 C-4.11143484 -1.01099781 -2.76813517 -1.38406758 0 0 Z " fill="#269567" transform="translate(374,441)"/>
<path d="M0 0 C0.66 0.66 1.32 1.32 2 2 C1.071875 2.4021875 1.071875 2.4021875 0.125 2.8125 C-2.2995233 3.95556848 -2.2995233 3.95556848 -4 7 C-5.32 6.67 -6.64 6.34 -8 6 C-5.36 4.02 -2.72 2.04 0 0 Z " fill="#279567" transform="translate(612,425)"/>
<path d="M0 0 C0.66 0.33 1.32 0.66 2 1 C1.34 2.98 0.68 4.96 0 7 C-0.66 7 -1.32 7 -2 7 C-2 6.34 -2 5.68 -2 5 C-2.66 4.34 -3.32 3.68 -4 3 C-2.68 2.01 -1.36 1.02 0 0 Z " fill="#2B986C" transform="translate(566,327)"/>
<path d="M0 0 C0.66 0.33 1.32 0.66 2 1 C1.01 1.33 0.02 1.66 -1 2 C-1.33 3.65 -1.66 5.3 -2 7 C-3.32 6.34 -4.64 5.68 -6 5 C-4.02 3.35 -2.04 1.7 0 0 Z " fill="#29976A" transform="translate(482,680)"/>
<path d="M0 0 C0.99 0.33 1.98 0.66 3 1 C0.82575883 3.50037734 -0.73045798 4.43628586 -4 5 C-2.68 3.35 -1.36 1.7 0 0 Z " fill="#EAF3F0" transform="translate(416,661)"/>
<path d="M0 0 C0.33 0 0.66 0 1 0 C1.66 3.3 2.32 6.6 3 10 C1.68 10.33 0.36 10.66 -1 11 C-0.67 7.37 -0.34 3.74 0 0 Z " fill="#42A37C" transform="translate(446,719)"/>
<path d="M0 0 C0 0.99 0 1.98 0 3 C-3.96 4.98 -3.96 4.98 -8 7 C-8 6.34 -8 5.68 -8 5 C-6.25 3.7109375 -6.25 3.7109375 -4 2.375 C-3.2575 1.92898438 -2.515 1.48296875 -1.75 1.0234375 C-1.1725 0.68570313 -0.595 0.34796875 0 0 Z " fill="#219265" transform="translate(587,609)"/>
<path d="M0 0 C0.33 0.66 0.66 1.32 1 2 C-0.32 2 -1.64 2 -3 2 C-3.33 2.66 -3.66 3.32 -4 4 C-5.32 3.67 -6.64 3.34 -8 3 C-5.53387212 -0.1151089 -3.89156016 -0.31553191 0 0 Z " fill="#279669" transform="translate(665,504)"/>
<path d="M0 0 C0.66 0.33 1.32 0.66 2 1 C1.67 1.99 1.34 2.98 1 4 C-1.64 4.33 -4.28 4.66 -7 5 C-4.88437775 2.67281553 -2.94982021 1.14186589 0 0 Z " fill="#259265" transform="translate(574,396)"/>
<path d="M0 0 C0.33 1.32 0.66 2.64 1 4 C0.01 4.495 0.01 4.495 -1 5 C-1 4.34 -1 3.68 -1 3 C-2.98 3.66 -4.96 4.32 -7 5 C-4.87219421 2.65941363 -2.88437779 1.29299694 0 0 Z " fill="#269467" transform="translate(516,309)"/>
</svg>
